<?xml version="1.0" standalone="no"?>
<!DOCTYPE svg PUBLIC "-//W3C//DTD SVG 1.1//EN" "http://www.w3.org/Graphics/SVG/1.1/DTD/svg11.dtd" >
<svg>
<metadata>
Created by FontForge 20090622 at Tue Jan  9 06:11:35 2018
 By deploy user
Copyright (c) 2014 by Fontfabric LLC. All rights reserved.
</metadata>
<defs>
<font id="GloberSemiBold" horiz-adv-x="1138" >
  <font-face 
    font-family="Glober SemiBold"
    font-weight="600"
    font-stretch="normal"
    units-per-em="2048"
    panose-1="0 0 0 0 0 0 0 0 0 0"
    ascent="1536"
    descent="-512"
    x-height="1077"
    cap-height="1475"
    bbox="-338 -512.039 2150 1933.91"
    underline-thickness="102"
    underline-position="-102"
    unicode-range="U+0020-U+FB02"
  />
<missing-glyph horiz-adv-x="748" 
d="M68 0v1365h544v-1365h-544zM136 68h408v1229h-408v-1229z" />
    <glyph glyph-name="uniFB01" unicode="fi" horiz-adv-x="1183" 
d="M68 1001q0 21 2.5 40t5.5 27l2 9h131v123q0 162 95 249t292 87q111 0 216 -16.5t154 -33.5l50 -16q-3 -87 -53 -143q-16 5 -46 12.5t-122.5 20t-184.5 12.5q-105 0 -151.5 -38.5t-46.5 -123.5v-133h512q27 0 52 -3t39 -6t15 -3v-1051q-34 -14 -102 -14q-32 0 -58 3.5
t-36 6.5l-9 4v910h-413v-910q-35 -14 -101 -14q-32 0 -57.5 3.5t-35.5 6.5l-9 4v910h-131q-10 30 -10 77z" />
    <glyph glyph-name="uniFB02" unicode="fl" horiz-adv-x="1183" 
d="M66 1001q0 43 10 76h131v123q0 160 94 248t287 88q104 0 214 -17.5t168 -34.5l58 -18v-1452q-34 -14 -102 -14q-32 0 -58 3.5t-36 6.5l-9 4v1338q-110 20 -219 20q-102 0 -148 -39.5t-46 -122.5v-133h198q10 -38 10 -76q0 -39 -10 -77h-198v-910q-35 -14 -101 -14
q-32 0 -57.5 3.5t-35.5 6.5l-9 4v910h-131q-10 58 -10 77z" />
    <glyph glyph-name=".notdef" horiz-adv-x="748" 
d="M68 0v1365h544v-1365h-544zM136 68h408v1229h-408v-1229z" />
    <glyph glyph-name="glyph1" horiz-adv-x="0" 
 />
    <glyph glyph-name="glyph2" horiz-adv-x="682" 
 />
    <glyph glyph-name="space" unicode=" " horiz-adv-x="460" 
 />
    <glyph glyph-name="exclam" unicode="!" horiz-adv-x="548" 
d="M164 1460q32 15 110 15q33 0 60.5 -3.5t39.5 -7.5l11 -4l-35 -1067q-27 -16 -74 -16q-22 0 -41 4t-27 8l-9 4zM170 14v193q30 14 104 14q31 0 57.5 -3.5t36.5 -7.5l11 -3v-193q-35 -14 -105 -14q-33 0 -59 3.5t-35 6.5z" />
    <glyph glyph-name="quotedbl" unicode="&#x22;" horiz-adv-x="737" 
d="M117 1460q30 15 100 15q30 0 55.5 -3.5t35.5 -7.5l11 -4l-34 -411q-23 -11 -68 -11q-19 0 -35.5 3t-23.5 5l-6 3zM418 1460q30 15 102 15q29 0 54.5 -3.5t35.5 -7.5l11 -4l-35 -411q-23 -11 -66 -11q-20 0 -37 3t-23 5l-7 3z" />
    <glyph glyph-name="numbersign" unicode="#" horiz-adv-x="1357" 
d="M74 332q0 15 1 28.5t3 23t4 16t3 10.5l1 4h215l121 428h-164q-12 32 -12 84t12 80h209l74 256q38 14 86 14q52 0 90 -14l-72 -256h283l71 256q41 14 91 14t88 -14l-74 -256h160q14 -32 14 -76q0 -50 -14 -88h-205l-121 -428h156q1 -1 4.5 -10.5t6.5 -29.5t3 -42
q0 -54 -14 -82h-201l-66 -234q-40 -16 -88 -16q-50 0 -90 16l66 234h-283l-65 -234q-40 -16 -93 -16q-47 0 -84 16l66 234h-170l-1 4q-1 5 -3 12t-4 16.5t-3 22.5t-1 27zM479 414h283l119 428h-281z" />
    <glyph glyph-name="dollar" unicode="$" horiz-adv-x="1148" 
d="M106 989q0 163 102 259.5t298 115.5l-17 238q33 14 86 14q25 0 47.5 -3.5t31.5 -6.5l10 -4l-17 -236q88 -3 171.5 -15.5t123.5 -24.5l39 -11q0 -37 -14 -82q-12 -37 -43 -68q-131 41 -299 41q-314 0 -314 -196q0 -49 25.5 -85t69 -59t100 -41.5t118.5 -35.5t124 -36.5
t118.5 -49.5t100 -69.5t69 -102t25.5 -142.5q0 -169 -104.5 -266.5t-311.5 -114.5l19 -258q-29 -14 -86 -14q-24 0 -46.5 3.5t-32.5 6.5l-10 4l17 254q-106 4 -204.5 23.5t-144.5 36.5l-46 18l-1 2v6.5v8.5v11.5t1 14.5t3 17.5t5 19.5q13 50 37 74l59 -16t138.5 -26
t187.5 -16q153 0 230 46.5t77 152.5q0 54 -25.5 94.5t-68.5 65t-98.5 43t-117 34.5l-123 33.5t-117 45t-98.5 64.5t-68.5 96t-25.5 136z" />
    <glyph glyph-name="percent" unicode="%" horiz-adv-x="1560" 
d="M86 1061q0 184 71.5 269t209.5 85q136 0 208 -84.5t72 -269.5t-72 -269.5t-208 -84.5q-138 0 -209.5 84t-71.5 270zM238 1061q0 -137 31 -185.5t98 -48.5q42 0 68 17.5t42.5 70.5t16.5 146q0 133 -32 184t-95 51q-66 0 -97.5 -50.5t-31.5 -184.5zM311 -8l793 1433
q25 13 80 13q24 0 44 -3t28 -7l8 -3l-791 -1433q-27 -12 -82 -12q-23 0 -43 3t-28 6zM920 334q0 184 71 269t207 85q281 0 281 -354t-281 -354q-137 0 -207.5 84t-70.5 270zM1069 334q0 -136 31.5 -185t97.5 -49q43 0 69 17.5t42 70t16 146.5q0 134 -31.5 184.5t-95.5 50.5
q-65 0 -97 -51t-32 -184z" />
    <glyph glyph-name="ampersand" unicode="&#x26;" horiz-adv-x="1314" 
d="M88 332q0 65 22.5 126.5t54.5 105.5t76 84t78.5 63t71.5 43q-76 168 -76 321q0 156 85 247t253 91q144 0 227 -69t83 -185q0 -60 -19.5 -114.5t-49 -96t-78.5 -84.5t-93.5 -73.5t-108.5 -69.5q115 -189 301 -342q57 79 105 217q47 6 90 -11t68 -50q-49 -127 -144 -246
q118 -75 236 -127q3 -47 -23.5 -93.5t-66.5 -70.5q-131 52 -277 149q-26 -26 -59.5 -50.5t-85.5 -53t-123.5 -46t-149.5 -17.5t-147.5 20.5t-126 61.5t-90 110.5t-33.5 159.5zM283 358q0 -96 63.5 -154.5t171.5 -58.5q141 0 268 93q-207 177 -331 393q-68 -45 -120 -114
t-52 -159zM494 1087q0 -114 57 -243q111 66 168 134.5t57 166.5q0 61 -34 96t-99 35q-69 0 -109 -48t-40 -141z" />
    <glyph glyph-name="quotesingle" unicode="'" horiz-adv-x="434" 
d="M117 1460q28 15 100 15q30 0 55 -3.5t35 -7.5l10 -4l-34 -411q-23 -11 -66 -11q-19 0 -35.5 3t-23.5 5l-6 3z" />
    <glyph glyph-name="parenleft" unicode="(" horiz-adv-x="600" 
d="M106 655q0 116 15.5 234t40 214t54 185.5t59.5 155.5l54.5 116t40.5 76l15 25q39 2 86 -23q22 -12 38.5 -27t22.5 -23l5 -9l-24.5 -42.5t-55.5 -120.5t-70 -193.5t-55 -255.5t-25 -312t23.5 -310t57.5 -259t68 -189.5t58 -124.5l23 -40q-17 -35 -64 -60
q-21 -10 -43 -15.5t-34 -6.5h-11l-30 51t-67 139t-85 217t-67 275t-30 323z" />
    <glyph glyph-name="parenright" unicode=")" horiz-adv-x="602" 
d="M63 -268l25 42.5t56 120.5t70.5 193.5t55.5 255t25 311.5t-24 310t-58 259t-68 189.5t-58 124.5l-24 41q19 32 68 59q21 11 42.5 17t32.5 6h11l30 -51t67 -139t85 -217.5t67 -275.5t30 -323q0 -116 -15.5 -234t-40 -214t-54.5 -185t-59.5 -155.5t-54 -116t-40.5 -74.5
l-15 -26q-41 -1 -88 22q-21 11 -37.5 26t-22.5 24z" />
    <glyph glyph-name="asterisk" unicode="*" horiz-adv-x="698" 
d="M104 1233q0 59 33 104l158 -51v164q53 18 108 -2v-162l158 51q33 -39 33 -104l-156 -51l101 -135q-43 -47 -93 -64l-96 133l-96 -133q-55 18 -92 64l96 135z" />
    <glyph glyph-name="plus" unicode="+" horiz-adv-x="958" 
d="M100 594q0 21 3 40t7 28l3 8h290v291q29 12 76 12q21 0 40 -3t27 -6l9 -3v-291h291q12 -29 12 -76q0 -21 -3 -40t-6 -28l-3 -8h-291v-291q-29 -12 -76 -12q-21 0 -40 3t-27 6l-9 3v291h-290q-13 29 -13 76z" />
    <glyph glyph-name="comma" unicode="," horiz-adv-x="481" 
d="M125 -205q7 8 18.5 23.5t32.5 69t25 112.5q-21 1 -38 4.5t-23 6.5l-7 3v193q37 14 107 14q31 0 57.5 -3.5t37.5 -7.5l11 -3v-129q0 -62 -15 -119t-37 -94.5t-43.5 -66t-36.5 -41.5l-15 -13z" />
    <glyph glyph-name="hyphen" unicode="-" horiz-adv-x="733" 
d="M141 594q0 21 3.5 40t6.5 28l3 8h426q12 -29 12 -76q0 -21 -3 -40t-6 -28l-3 -8h-426q-13 29 -13 76z" />
    <glyph glyph-name="period" unicode="." horiz-adv-x="479" 
d="M133 14v193q33 14 107 14q31 0 57.5 -3.5t37.5 -7.5l11 -3v-193q-36 -14 -106 -14q-33 0 -59.5 3.5t-36.5 6.5z" />
    <glyph glyph-name="slash" unicode="/" horiz-adv-x="972" 
d="M43 -82l684 1604q37 14 100 14q30 0 56 -3.5t37 -6.5l10 -4l-684 -1604q-37 -14 -103 -14q-29 0 -54 3.5t-35 6.5z" />
    <glyph glyph-name="zero" unicode="0" horiz-adv-x="1265" 
d="M123 696q0 370 129 543.5t379 173.5q252 0 382 -172t130 -545t-130 -544.5t-382 -171.5q-166 0 -277 72t-171 232.5t-60 411.5zM340 696q0 -157 18.5 -263.5t57 -167t90 -86t125.5 -25.5q60 0 104.5 15.5t81 53t59 99.5t34.5 155t12 219q0 127 -12 220t-34.5 155
t-59 99.5t-81 53t-104.5 15.5q-74 0 -125.5 -25.5t-90 -86t-57 -167.5t-18.5 -264z" />
    <glyph glyph-name="one" unicode="1" horiz-adv-x="847" 
d="M61 1104q128 34 223.5 100.5t168.5 173.5q30 15 100 15q30 0 55 -3.5t35 -7.5l10 -4v-1364q-30 -14 -102 -14q-29 0 -55.5 3.5t-37.5 6.5l-12 4v840q0 141 11 266q-132 -132 -346 -186q-31 30 -45 75.5t-5 94.5z" />
    <glyph glyph-name="two" unicode="2" horiz-adv-x="1089" 
d="M98 137q0 87 22 160.5t53 124t84.5 100t96 79.5t107.5 72q7 4 11 7t10.5 7l11.5 7l85 58l66 49.5t55 50.5t35 50.5t24.5 60.5t6.5 69q0 98 -66.5 154.5t-201.5 56.5q-67 0 -139 -12.5t-111 -25.5l-39 -13q-69 56 -57 147q18 8 50.5 20.5t131.5 33t196 20.5q96 0 175 -21
t141 -64.5t96.5 -117.5t34.5 -172q0 -42 -6 -80t-14.5 -68.5t-27.5 -61t-34 -52.5t-46 -49.5t-52.5 -45t-63.5 -45l-68.5 -44l-78.5 -47.5q-15 -10 -61.5 -37.5t-68.5 -41.5t-58.5 -43.5t-54 -54.5t-32 -62t-14.5 -77q0 -29 4 -45h639q21 -34 21 -92q0 -48 -21 -92h-829
q-13 65 -13 137z" />
    <glyph glyph-name="three" unicode="3" horiz-adv-x="1075" 
d="M96 51q-2 43 11.5 84.5t39.5 67.5q17 -7 48.5 -15.5t103 -20t139.5 -11.5q160 0 236 58.5t76 184.5q0 246 -289 246h-152q-32 85 0 164h152q118 0 182 53t64 162q0 217 -265 217q-69 0 -135 -11.5t-97 -22.5l-32 -11q-73 51 -63 145q15 8 43 20t118 32t185 20
q215 0 333.5 -94t118.5 -268q0 -241 -182 -318q227 -81 227 -360q0 -393 -505 -393q-63 0 -123 7.5t-100.5 17.5t-72 20.5t-46.5 18.5z" />
    <glyph glyph-name="four" unicode="4" horiz-adv-x="1185" 
d="M61 432q0 24 4.5 44.5t8.5 29.5l4 8l637 864q34 15 104 15q30 0 55 -3.5t34 -7.5l10 -4v-864h182q14 -29 14 -82q0 -24 -3.5 -44.5t-6.5 -29.5l-4 -8h-182v-336q-36 -14 -95 -14q-28 0 -53 3.5t-36 6.5l-11 4v336h-645q-17 29 -17 82zM283 514h440v596z" />
    <glyph glyph-name="five" unicode="5" horiz-adv-x="1069" 
d="M94 47q-3 42 11 84t40 68q13 -5 36 -12t94 -19t141 -12q166 0 250 58t84 187q0 138 -77 196t-261 58q-69 0 -234 -12v750h723q37 -95 0 -181h-522v-393q48 6 106 6q237 0 356.5 -104t119.5 -320q0 -207 -130.5 -314t-394.5 -107q-67 0 -127 7t-97.5 16.5t-65.5 19.5
t-40 17z" />
    <glyph glyph-name="six" unicode="6" horiz-adv-x="1130" 
d="M119 526q0 418 200 630.5t574 236.5q15 -35 15 -80.5t-15 -83.5q-227 -26 -358 -126t-177 -300q130 49 254 49q91 0 166 -24.5t134 -75.5t91.5 -136.5t32.5 -199.5q0 -217 -121 -326.5t-337 -109.5t-337.5 134.5t-121.5 411.5zM328 518q0 -196 67 -288.5t183 -92.5
q114 0 180.5 70.5t66.5 208.5q0 274 -245 274q-103 0 -248 -59q-4 -35 -4 -113z" />
    <glyph glyph-name="seven" unicode="7" horiz-adv-x="1015" 
d="M70 1303q0 26 4 48.5t8 32.5l4 9h848q15 -48 12 -115q-3 -97 -32.5 -186t-74 -161.5t-97.5 -145.5l-106 -152.5t-96.5 -167t-70.5 -205t-27 -250.5q-45 -10 -98 -10q-55 0 -100 10q0 140 24 262.5t63 212.5t87 169t99 146.5l95.5 129.5t79.5 134.5t49 145.5h-655
q-16 36 -16 93z" />
    <glyph glyph-name="eight" unicode="8" horiz-adv-x="1189" 
d="M117 344q0 58 17 111t43 92.5t62 74.5t69 58t69 43q-104 59 -161.5 139t-57.5 201q0 161 116.5 255.5t317.5 94.5q199 0 312.5 -88t113.5 -246q0 -210 -201 -346q58 -30 101 -62.5t81 -77t58 -103t20 -128.5q0 -182 -127.5 -282t-361.5 -100q-221 0 -346 96t-125 268z
M313 354q0 -99 73 -156t210 -57q127 0 200.5 57t73.5 154q0 31 -9.5 59t-21.5 49t-38 43t-45 35.5t-57.5 33t-59.5 28.5l-67 28.5l-66 28.5q-30 -19 -57 -42t-61 -61t-54.5 -90t-20.5 -110zM358 1075q0 -41 17 -75.5t41 -59t66.5 -50t78 -41.5l90.5 -40q22 -9 33 -14
q150 117 150 266q0 95 -64 147t-178 52q-110 0 -172 -50t-62 -135z" />
    <glyph glyph-name="nine" unicode="9" horiz-adv-x="1130" 
d="M94 977q0 217 121.5 326.5t337.5 109.5t337.5 -134.5t121.5 -412.5q0 -816 -772 -866q-34 83 -2 164q226 24 357 124t177 302q-130 -49 -254 -49q-91 0 -166 24.5t-134 75.5t-91.5 136.5t-32.5 199.5zM305 977q0 -143 65.5 -209t180.5 -66q106 0 248 58q4 74 4 114
q0 196 -67 288.5t-183 92.5q-115 0 -181.5 -70t-66.5 -208z" />
    <glyph glyph-name="colon" unicode=":" horiz-adv-x="495" 
d="M141 14v193q33 14 107 14q31 0 57.5 -3.5t37.5 -7.5l11 -3v-193q-36 -14 -106 -14q-33 0 -59.5 3.5t-36.5 6.5zM141 823v193q33 14 107 14q31 0 57.5 -3.5t37.5 -6.5l11 -4v-193q-36 -14 -106 -14q-33 0 -59.5 3.5t-36.5 7.5z" />
    <glyph glyph-name="semicolon" unicode=";" horiz-adv-x="507" 
d="M141 -205q3 3 7.5 8.5t16.5 25t22 41.5t19 57.5t11 72.5q-21 1 -37.5 4.5t-23.5 6.5l-6 3v193q32 14 106 14q31 0 57.5 -3.5t37.5 -7.5l11 -3v-129q0 -62 -15 -119t-36 -94.5t-42.5 -66t-36.5 -41.5l-15 -13zM150 823v193q32 14 106 14q31 0 57.5 -3.5t37.5 -6.5l11 -4
v-193q-36 -14 -106 -14q-33 0 -59.5 3.5t-36.5 7.5z" />
    <glyph glyph-name="less" unicode="&#x3c;" horiz-adv-x="921" 
d="M98 596q0 21 3 40.5t7 28.5l3 9l655 295q12 -25 12 -76q0 -23 -3 -43t-6 -28l-3 -9l-487 -223l487 -217q12 -25 12 -78q0 -22 -3 -41.5t-6 -27.5l-3 -9l-655 295q-13 35 -13 84z" />
    <glyph glyph-name="equal" unicode="=" horiz-adv-x="1052" 
d="M160 332q-22 83 0 153h733q24 -71 0 -153h-733zM160 700q-22 83 0 154h733q24 -69 0 -154h-733z" />
    <glyph glyph-name="greater" unicode="&#x3e;" horiz-adv-x="921" 
d="M143 295q0 24 3.5 43.5t6.5 27.5l3 7l487 217l-487 223q-13 29 -13 80q0 23 3.5 42t6.5 27l3 7l655 -295q12 -31 12 -78q0 -22 -3 -43t-6 -31l-3 -10l-655 -295q-13 29 -13 78z" />
    <glyph glyph-name="question" unicode="?" horiz-adv-x="892" 
d="M70 1341q13 8 39 20t111 32t177 20q188 0 301 -90t113 -266q0 -81 -20 -144.5t-52.5 -104t-71.5 -74l-78.5 -64.5t-72 -65.5t-52.5 -86.5t-20 -119q-22 -20 -77 -20q-22 0 -42 5t-29 10l-9 5q0 89 17.5 157.5t45 110.5t60.5 75t66.5 61t61 59t45 77.5t17.5 107.5
q0 196 -233 196q-65 0 -123.5 -11.5t-84.5 -23.5l-26 -12q-73 51 -63 145zM260 14v193q33 14 107 14q31 0 57.5 -3.5t37.5 -7.5l11 -3v-193q-36 -14 -106 -14q-33 0 -59.5 3.5t-37.5 6.5z" />
    <glyph glyph-name="at" unicode="@" horiz-adv-x="1869" 
d="M111 571q0 251 111 439.5t301.5 285.5t432.5 97q185 0 334.5 -55.5t250 -156.5t154.5 -244t54 -316q0 -214 -96.5 -330.5t-268.5 -116.5q-198 0 -254 125q-72 -125 -262 -125q-321 0 -321 395q0 398 321 398q160 0 238 -88v79q27 17 86 17q27 0 48.5 -4.5t29.5 -8.5l8 -4
v-507q0 -140 113 -140q88 0 141 78.5t53 231.5q0 291 -167 465t-462 174q-304 0 -483.5 -185t-179.5 -504q0 -138 35.5 -251.5t97 -190t145.5 -128.5t179 -75.5t200 -23.5q280 0 541 155q58 -30 61 -102q-280 -193 -628 -193q-127 0 -245 30.5t-222 96t-180.5 159t-121 228
t-44.5 295.5zM735 569q0 -150 50 -208t145 -58q77 0 124 47.5t52 118.5v201q-3 71 -51 119.5t-125 48.5q-47 0 -80 -11t-60.5 -39.5t-41 -83t-13.5 -135.5z" />
    <glyph glyph-name="A" unicode="A" horiz-adv-x="1339" 
d="M33 14l514 1446q51 15 123 15q35 0 65.5 -3.5t44.5 -7.5l13 -4l514 -1446q-37 -14 -113 -14q-31 0 -56.5 3.5t-35.5 6.5l-10 4l-127 361h-607l-129 -361q-34 -14 -100 -14q-28 0 -52 3.5t-34 6.5zM418 545h487l-186 518q-16 47 -29.5 93t-18.5 68l-5 23h-7
q-18 -82 -53 -184z" />
    <glyph glyph-name="B" unicode="B" horiz-adv-x="1286" 
d="M182 0v1475h549q192 0 297 -112.5t105 -293.5q0 -115 -48 -191.5t-116 -119.5q207 -106 207 -342q0 -189 -115.5 -302.5t-321.5 -113.5h-557zM391 162h309q261 0 261 254q0 129 -64 191.5t-199 62.5h-307v-508zM391 825h295q119 0 176.5 66t57.5 178q0 115 -57 179.5
t-179 64.5h-293v-488z" />
    <glyph glyph-name="C" unicode="C" horiz-adv-x="1150" 
d="M119 737q0 373 151 565.5t445 192.5q101 0 188.5 -17.5t124.5 -35.5l37 -17v-12q0 -76 -61 -143q-13 5 -37 13t-94 21t-134 13q-75 0 -134 -16.5t-110.5 -57t-85.5 -106t-53.5 -167t-19.5 -235.5t19.5 -234.5t53.5 -164.5t86 -103.5t110.5 -55t133.5 -15.5q72 0 143.5 12
t106.5 24l35 11q60 -57 63 -160q-5 -3 -15.5 -7.5t-46 -16.5t-75.5 -21t-104 -16.5t-131 -7.5q-294 0 -445 191.5t-151 565.5z" />
    <glyph glyph-name="D" unicode="D" horiz-adv-x="1359" 
d="M182 0v1475h455q146 0 254.5 -39.5t188 -125.5t119.5 -229t40 -344t-40 -344t-119.5 -228.5t-188 -125t-254.5 -39.5h-455zM391 174h232q76 0 133.5 14t108 51.5t82.5 100t50.5 162t18.5 235.5t-18.5 236t-50.5 162.5t-82.5 99.5t-108 51t-133.5 14h-232v-1126z" />
    <glyph glyph-name="E" unicode="E" 
d="M182 0v1475h832q16 -50 16 -80q0 -47 -16 -90h-623v-476h520q17 -53 17 -81q0 -40 -17 -86h-520v-492h643q17 -57 17 -82q0 -39 -17 -88h-852z" />
    <glyph glyph-name="F" unicode="F" horiz-adv-x="1089" 
d="M182 14v1461h815q17 -39 17 -84q0 -43 -17 -86h-606v-500h537q16 -32 16 -82q0 -48 -16 -88h-537v-621q-34 -14 -106 -14q-30 0 -56 3.5t-37 6.5z" />
    <glyph glyph-name="G" unicode="G" horiz-adv-x="1288" 
d="M119 737q0 371 161 564.5t468 193.5q108 0 203.5 -17.5t136.5 -35.5l42 -17q0 -95 -61 -153q-15 5 -42.5 13t-106 21t-150.5 13q-78 0 -141.5 -16.5t-119 -57.5t-93 -106.5t-59 -167.5t-21.5 -236t21.5 -235t59 -165t93.5 -104t118.5 -55.5t141.5 -15.5q114 0 186 16v473
h-297q-16 31 -16 84q0 24 4 45.5t8 31.5l4 9h494v-770q-6 -3 -18 -7.5t-51.5 -16.5t-83.5 -21t-112.5 -16.5t-139.5 -7.5q-307 0 -468 192t-161 565z" />
    <glyph glyph-name="H" unicode="H" horiz-adv-x="1396" 
d="M182 14v1446q35 15 103 15q31 0 57.5 -3.5t37.5 -7.5l11 -4v-614h615v614q36 15 104 15q30 0 56 -3.5t37 -7.5l11 -4v-1446q-34 -14 -102 -14q-35 0 -61.5 3.5t-35.5 6.5l-9 4v652h-615v-652q-36 -14 -104 -14q-33 0 -59 3.5t-36 6.5z" />
    <glyph glyph-name="I" unicode="I" horiz-adv-x="573" 
d="M182 14v1446q35 15 103 15q32 0 58.5 -3.5t36.5 -7.5l11 -4v-1446q-36 -14 -104 -14q-33 0 -59 3.5t-36 6.5z" />
    <glyph glyph-name="J" unicode="J" horiz-adv-x="907" 
d="M41 41v9q0 91 55 149q95 -37 199 -37q231 0 231 223v1075q29 15 105 15q31 0 57 -3.5t36 -7.5l11 -4v-1069q0 -203 -106 -307t-289 -104q-73 0 -147.5 15t-112.5 31z" />
    <glyph glyph-name="K" unicode="K" horiz-adv-x="1263" 
d="M182 14v1446q37 15 107 15q30 0 55.5 -3.5t35.5 -7.5l11 -4v-610h150l422 610q67 15 104 15q35 0 113 -15l-465 -672l526 -774q-43 -14 -123 -14q-34 0 -64 3.5t-44 6.5l-13 4l-456 668h-150v-668q-30 -14 -104 -14q-29 0 -55.5 3.5t-37.5 6.5z" />
    <glyph glyph-name="L" unicode="L" horiz-adv-x="1062" 
d="M182 0v1460q35 15 103 15q32 0 58.5 -3.5t36.5 -7.5l11 -4v-1280h613q16 -40 16 -90q0 -47 -16 -90h-822z" />
    <glyph glyph-name="M" unicode="M" horiz-adv-x="1710" 
d="M182 14v1446q49 15 125 15q28 0 59.5 -3.5t48.5 -7.5l17 -4l270 -512q118 -238 142 -317h8q28 86 76 182l334 647q73 15 133 15q36 0 70 -3.5t49 -7.5l16 -4v-1446q-35 -14 -103 -14q-29 0 -55 3.5t-38 6.5l-11 4v656q-1 30 -1 118v76.5v53.5q0 42 1.5 107.5t4 111
t7.5 80.5h-10q-23 -86 -182 -412l-240 -451q-26 -10 -63 -10q-17 0 -31.5 2.5t-20.5 5.5l-6 2l-235 443q-160 319 -187 420h-8q21 -107 21 -517v-686q-33 -14 -99 -14q-25 0 -48 3.5t-34 6.5z" />
    <glyph glyph-name="N" unicode="N" horiz-adv-x="1433" 
d="M182 14v1446q43 15 125 15q36 0 67 -3.5t44 -7.5l12 -4l510 -923q33 -59 64.5 -127.5t47.5 -107.5l15 -38h6q-14 152 -14 342v854q30 15 98 15q30 0 53.5 -3.5t31.5 -7.5l9 -4v-1446q-39 -14 -121 -14q-36 0 -67 3.5t-44 6.5l-13 4l-517 932q-34 59 -64 125t-43 103
l-13 36h-9q15 -137 15 -344v-852q-31 -14 -99 -14q-29 0 -52.5 3.5t-32.5 6.5z" />
    <glyph glyph-name="O" unicode="O" horiz-adv-x="1392" 
d="M119 737q0 384 151.5 571t425.5 187q275 0 426.5 -186t151.5 -572t-150.5 -571.5t-427.5 -185.5t-427 185t-150 572zM338 737q0 -134 16.5 -234.5t46.5 -166.5t75.5 -107t98.5 -58t121 -17t121.5 17t99 58t75.5 107t46.5 166.5t16.5 234.5q0 166 -24.5 281.5t-73.5 181
t-112 93.5t-149 28q-85 0 -148 -28t-111.5 -93.5t-73.5 -181t-25 -281.5z" />
    <glyph glyph-name="P" unicode="P" horiz-adv-x="1241" 
d="M182 14v1461h535q201 0 320.5 -124t119.5 -327q0 -201 -119.5 -325t-320.5 -124h-326v-561q-34 -14 -102 -14q-34 0 -60.5 3.5t-36.5 6.5zM391 750h299q121 0 185.5 72t64.5 202q0 131 -64.5 203.5t-185.5 72.5h-299v-550z" />
    <glyph glyph-name="Q" unicode="Q" horiz-adv-x="1392" 
d="M119 737q0 384 151.5 571t425.5 187q275 0 426.5 -186t151.5 -572q0 -443 -201 -628q110 -95 275 -129q-6 -55 -38 -104.5t-77 -72.5q-89 30 -166.5 89t-132.5 133q-102 -45 -238 -45q-277 0 -427 185t-150 572zM338 737q0 -134 16.5 -234.5t46.5 -166.5t75.5 -107
t98.5 -58t121 -17t121.5 17t99 58t75.5 107t46.5 166.5t16.5 234.5q0 166 -24.5 281.5t-73.5 181t-112 93.5t-149 28q-85 0 -148 -28t-111.5 -93.5t-73.5 -181t-25 -281.5z" />
    <glyph glyph-name="R" unicode="R" horiz-adv-x="1282" 
d="M182 14v1461h525q200 0 320 -119t120 -314q0 -152 -77 -260.5t-212 -148.5l356 -619q-42 -14 -122 -14q-34 0 -63.5 3.5t-42.5 6.5l-13 4l-340 598h-242v-598q-34 -14 -102 -14q-34 0 -60.5 3.5t-36.5 6.5zM391 786h289q120 0 185 67t65 189q0 123 -65 190.5t-185 67.5
h-289v-514z" />
    <glyph glyph-name="S" unicode="S" horiz-adv-x="1163" 
d="M113 66v9q0 81 49 156q22 -7 59 -17.5t138.5 -28t185.5 -17.5q311 0 311 233q0 52 -19 91.5t-58.5 67.5t-79.5 45.5t-101 37.5l-65 21l-68 22t-65 23.5t-65 28t-58.5 32.5t-54.5 40t-44 48.5t-35.5 60t-21 71.5t-8.5 85q0 194 127.5 307t371.5 113q109 0 209.5 -14.5
t146.5 -28.5l46 -14q0 -103 -58 -164q-16 5 -43.5 12.5t-110.5 20t-161 12.5q-161 0 -241.5 -60t-80.5 -174q0 -26 5.5 -48t19.5 -41t27 -33.5t39.5 -29.5l43.5 -24t53 -22t55 -19l62 -19.5l62 -19.5q55 -19 95 -36t88 -42.5t80.5 -56.5t61.5 -72t43.5 -95t14.5 -119
q0 -207 -131.5 -317.5t-382.5 -110.5q-120 0 -230.5 21.5t-160.5 42.5z" />
    <glyph glyph-name="T" unicode="T" horiz-adv-x="1120" 
d="M53 1384q0 23 4.5 45.5t8.5 34.5l4 11h981q16 -38 16 -89q0 -24 -4 -47t-8 -34l-4 -11h-381v-1280q-37 -14 -105 -14q-33 0 -59 3.5t-36 6.5l-9 4v1280h-391q-17 35 -17 90z" />
    <glyph glyph-name="U" unicode="U" horiz-adv-x="1376" 
d="M172 500v960q34 15 102 15q31 0 57.5 -3.5t36.5 -7.5l11 -4v-993q0 -148 81.5 -229.5t229.5 -81.5q149 0 229 81.5t80 229.5v993q33 15 101 15q30 0 56 -3.5t37 -7.5l11 -4v-960q0 -247 -140 -383.5t-378 -136.5q-236 0 -375 137.5t-139 382.5z" />
    <glyph glyph-name="V" unicode="V" horiz-adv-x="1310" 
d="M41 1456q39 19 115 19q31 0 55.5 -4.5t33.5 -8.5l9 -4l338 -983q20 -60 36 -121t22 -92l7 -31h7q18 107 65 244l340 983q28 17 96 17q29 0 56 -4.5t39 -8.5l12 -4l-496 -1444q-49 -14 -121 -14q-32 0 -62 3.5t-44 6.5l-14 4z" />
    <glyph glyph-name="W" unicode="W" horiz-adv-x="1978" 
d="M53 1460q35 15 105 15q32 0 58 -3.5t36 -7.5l10 -4l268 -962q16 -59 30.5 -127t21.5 -106l6 -38h8q16 136 49 271l246 962q32 15 108 15q35 0 62.5 -3.5t38.5 -7.5l10 -4l244 -962q16 -63 27.5 -130.5t15.5 -103.5l4 -37h6q18 124 57 271l269 962q37 15 94 15
q27 0 51.5 -3.5t35.5 -7.5l11 -4l-399 -1446q-47 -14 -119 -14q-31 0 -62.5 3.5t-46.5 6.5l-16 4l-235 938q-19 84 -31 159.5t-14 108.5l-3 33h-8q-6 -111 -49 -301l-235 -938q-68 -14 -134 -14q-55 0 -118 14z" />
    <glyph glyph-name="X" unicode="X" horiz-adv-x="1282" 
d="M29 14l477 752l-428 694q41 15 121 15q31 0 60 -3.5t43 -7.5l13 -4l334 -534l340 534q58 15 111 15q59 0 110 -15l-438 -682l475 -760q-43 -18 -121 -18q-33 0 -62 4t-42 8l-12 4l-375 598l-379 -600q-47 -14 -104 -14q-80 0 -123 14z" />
    <glyph glyph-name="Y" unicode="Y" horiz-adv-x="1298" 
d="M39 1460q45 15 127 15q34 0 63.5 -3.5t42.5 -7.5l13 -4l374 -633l385 633q37 15 109 15q31 0 60.5 -3.5t42.5 -7.5l14 -4l-518 -844v-602q-35 -14 -103 -14q-33 0 -59.5 3.5t-36.5 6.5l-10 4v598z" />
    <glyph glyph-name="Z" unicode="Z" horiz-adv-x="1216" 
d="M74 94q0 50 16 90l760 1108h-705q-12 54 -12 97q0 40 12 86h945q14 -31 14 -89q0 -50 -14 -94l-771 -1108h797q12 -46 12 -88q0 -38 -12 -96h-1026q-16 46 -16 94z" />
    <glyph glyph-name="bracketleft" unicode="[" horiz-adv-x="673" 
d="M184 -348v2007h408q12 -27 12 -80q0 -23 -3 -42t-6 -27l-3 -7h-217v-1696h217q12 -26 12 -77q0 -24 -3 -43.5t-6 -26.5l-3 -8h-408z" />
    <glyph glyph-name="backslash" unicode="\" horiz-adv-x="976" 
d="M43 1520q37 16 107 16q29 0 54.5 -4t36.5 -8l11 -4l684 -1600q-35 -16 -105 -16q-30 0 -56 4t-37 8l-11 4z" />
    <glyph glyph-name="bracketright" unicode="]" horiz-adv-x="673" 
d="M70 -270q0 23 3 42t6 27l3 8h217v1696h-217q-12 25 -12 76q0 24 3 44t6 28l3 8h407v-2007h-407q-12 25 -12 78z" />
    <glyph glyph-name="asciicircum" unicode="^" horiz-adv-x="1069" 
d="M96 938l355 524q31 13 84 13q24 0 44.5 -3.5t29.5 -6.5l9 -3l355 -524q-29 -12 -78 -12q-23 0 -45.5 3t-33.5 6l-11 3l-270 401l-273 -401q-37 -12 -88 -12q-22 0 -41.5 3t-28.5 6z" />
    <glyph glyph-name="underscore" unicode="_" 
d="M119 -109q0 21 3 38t6 23l3 7h877q12 -21 12 -68q0 -22 -3 -39t-6 -24l-3 -6h-877q-12 20 -12 69z" />
    <glyph glyph-name="grave" unicode="`" horiz-adv-x="487" 
d="M61 1581q22 36 76 59t103 17l194 -289q-35 -50 -117 -63z" />
    <glyph glyph-name="a" unicode="a" horiz-adv-x="1054" 
d="M82 322q0 165 99 243t294 78q128 0 234 -12v76q0 109 -48.5 164t-162.5 55q-64 0 -132.5 -13t-105.5 -26l-37 -13l-3 2q-2 3 -5.5 5.5t-8.5 8t-9.5 11.5t-10 15.5t-10.5 19.5q-3 8 -5.5 16t-4 15t-2.5 14.5t-1 13v10.5t0.5 8.5t0.5 6.5v2q6 3 17.5 8t49 18.5t77 23.5
t98.5 18t116 8q216 0 303.5 -96t87.5 -302v-686q-22 -14 -79 -14q-23 0 -43.5 3.5t-29.5 6.5l-9 4l-31 131q-80 -165 -322 -165q-148 0 -232.5 87t-84.5 255zM293 322q0 -185 178 -185q78 0 133 41.5t80 104t25 137.5v72q-141 12 -207 12q-105 0 -157 -43.5t-52 -138.5z" />
    <glyph glyph-name="b" unicode="b" 
d="M150 14v1508q32 14 100 14q31 0 57 -3.5t37 -6.5l10 -4v-557q90 133 295 133q90 0 158.5 -29t120.5 -93t79 -174t27 -263t-27 -263t-79 -174t-120.5 -93t-158.5 -29q-205 0 -295 133v-99q-34 -14 -104 -14q-30 0 -55 3.5t-35 6.5zM354 410q0 -111 60.5 -187t163.5 -76
q86 0 137.5 34t79.5 121t28 237q0 221 -58 306t-187 85q-103 0 -163.5 -74.5t-60.5 -183.5v-262z" />
    <glyph glyph-name="c" unicode="c" horiz-adv-x="915" 
d="M102 539q0 275 114 417t337 142q88 0 156.5 -13t92.5 -25l25 -13q0 -92 -59 -148q-71 31 -180 31q-146 0 -210.5 -94.5t-64.5 -296.5q0 -201 67.5 -293t215.5 -92q50 0 98 8.5t71 17.5l23 8q26 -23 42 -63.5t18 -83.5q-10 -7 -30.5 -17t-97 -27t-167.5 -17
q-223 0 -337 142t-114 417z" />
    <glyph glyph-name="d" unicode="d" 
d="M104 539q0 153 27 263t79 174t120.5 93t158.5 29q202 0 295 -133v557q35 14 105 14q30 0 55 -3.5t35 -6.5l10 -4v-1508q-35 -14 -86 -14q-23 0 -46 3.5t-35 6.5l-11 4l-14 111q-95 -145 -308 -145q-90 0 -158.5 29t-120.5 93t-79 174t-27 263zM315 539
q0 -221 58.5 -306.5t187.5 -85.5q103 0 163 76t60 187v264q-2 108 -61.5 182t-161.5 74q-86 0 -137.5 -33.5t-80 -120.5t-28.5 -237z" />
    <glyph glyph-name="e" unicode="e" horiz-adv-x="1052" 
d="M102 545q0 280 121 416.5t334 136.5q192 0 299 -105.5t107 -306.5q0 -57 -5.5 -110t-11.5 -77l-6 -24h-627q12 -176 81.5 -248.5t203.5 -72.5q64 0 124.5 15t89.5 29l28 15q62 -55 65 -147q-5 -3 -14 -9t-41.5 -21t-68.5 -26t-95 -20.5t-121 -9.5q-463 0 -463 565z
M313 621h439q6 48 6 92q0 100 -47 161.5t-154 61.5q-222 0 -244 -315z" />
    <glyph glyph-name="f" unicode="f" horiz-adv-x="720" 
d="M63 1001q0 39 11 76h135v123q0 161 78.5 248.5t263.5 87.5q61 0 117 -11t82 -21l26 -11q-3 -84 -53 -143q-64 22 -158 22q-85 0 -118 -38.5t-33 -123.5v-133h256q10 -38 10 -80q0 -35 -10 -73h-256v-910q-35 -14 -103 -14q-32 0 -57.5 3.5t-35.5 6.5l-9 4v910h-135
q-11 63 -11 77z" />
    <glyph glyph-name="g" unicode="g" horiz-adv-x="1087" 
d="M59 -227q0 55 20 104t52 84.5t58 56.5t53 37q-45 45 -45 119q0 112 98 227q-186 86 -186 328q0 174 103.5 271.5t297.5 97.5q138 0 227 -47l287 47q14 -32 14 -80t-14 -82l-170 8q57 -83 57 -215q0 -174 -103 -271.5t-298 -97.5q-43 0 -90 7q-40 -54 -40 -107q0 -6 1 -12
q4 -33 34 -54.5t76 -29.5t103 -17t116 -16t115 -27.5t100 -50t70.5 -84.5t26.5 -131q0 -154 -141 -252t-385 -98q-221 0 -329 77.5t-108 207.5zM258 -186q0 -81 61.5 -131t182.5 -50q155 0 240 50.5t85 134.5q0 48 -30.5 77.5t-85 43t-111.5 20.5t-129 17t-119 24
q-41 -33 -67.5 -82.5t-26.5 -103.5zM303 729q0 -112 55.5 -167.5t151.5 -55.5t150.5 55.5t54.5 167.5t-54.5 168.5t-150.5 56.5t-151.5 -56.5t-55.5 -168.5z" />
    <glyph glyph-name="h" unicode="h" horiz-adv-x="1124" 
d="M150 14v1508q30 14 102 14q29 0 54.5 -3.5t36.5 -6.5l11 -4v-553q114 129 310 129q151 0 234 -84.5t83 -225.5v-774q-34 -14 -102 -14q-31 0 -57 3.5t-36 6.5l-10 4v738q0 180 -190 180q-68 0 -130 -35t-102 -96v-787q-36 -14 -102 -14q-32 0 -57.5 3.5t-34.5 6.5z" />
    <glyph glyph-name="i" unicode="i" horiz-adv-x="512" 
d="M150 1284v193q32 14 106 14q31 0 57.5 -3.5t37.5 -7.5l11 -3v-193q-36 -14 -106 -14q-33 0 -59.5 3.5t-36.5 6.5zM154 14v1049q30 14 102 14q30 0 55.5 -3.5t36.5 -7.5l10 -3v-1049q-34 -14 -102 -14q-32 0 -57.5 3.5t-34.5 6.5z" />
    <glyph glyph-name="j" unicode="j" horiz-adv-x="512" 
d="M-82 -446q0 32 5 58t11 36l5 10q32 -8 75 -8q140 0 140 162v1251q30 14 102 14q30 0 55.5 -3.5t36.5 -7.5l10 -3v-1243q0 -163 -76 -247.5t-221 -84.5q-38 0 -72.5 4.5t-49.5 9.5l-15 4q-6 21 -6 48zM150 1286v193q32 14 106 14q31 0 57.5 -3.5t37.5 -7.5l11 -3v-193
q-36 -14 -106 -14q-33 0 -59.5 3.5t-36.5 6.5z" />
    <glyph glyph-name="k" unicode="k" horiz-adv-x="1026" 
d="M150 14v1512q41 10 104 10q24 0 49 -2.5t38 -5.5l13 -2v-887h117l279 424q41 14 104 14q25 0 50 -3t38 -6l12 -3l-315 -490l362 -561q-44 -16 -114 -16q-31 0 -59 4t-40 8l-12 4l-307 471h-115v-471q-41 -14 -100 -14q-29 0 -55 3.5t-37 6.5z" />
    <glyph glyph-name="l" unicode="l" horiz-adv-x="516" 
d="M156 14v1508q30 14 102 14q30 0 55.5 -3.5t36.5 -6.5l10 -4v-1508q-34 -14 -102 -14q-32 0 -57.5 3.5t-34.5 6.5z" />
    <glyph glyph-name="m" unicode="m" horiz-adv-x="1697" 
d="M150 14v1049q30 14 102 14q29 0 54 -3.5t36 -7.5l10 -3v-92q112 127 295 127q188 0 266 -150q126 150 336 150q144 0 224.5 -84.5t80.5 -225.5v-774q-34 -14 -102 -14q-32 0 -57.5 3.5t-34.5 6.5l-10 4v738q0 180 -179 180q-64 0 -122 -34t-97 -97v-787q-34 -14 -100 -14
q-32 0 -57.5 3.5t-34.5 6.5l-10 4v738q0 180 -179 180q-63 0 -121 -34.5t-98 -94.5v-789q-34 -14 -100 -14q-32 0 -57.5 3.5t-34.5 6.5z" />
    <glyph glyph-name="n" unicode="n" horiz-adv-x="1124" 
d="M150 14v1049q30 14 102 14q29 0 54.5 -3.5t36.5 -7.5l11 -3v-94q114 129 310 129q151 0 234 -84.5t83 -225.5v-774q-34 -14 -102 -14q-31 0 -57 3.5t-36 6.5l-10 4v738q0 180 -190 180q-68 0 -130 -35t-102 -96v-787q-36 -14 -102 -14q-32 0 -57.5 3.5t-34.5 6.5z" />
    <glyph glyph-name="o" unicode="o" horiz-adv-x="1114" 
d="M102 539q0 294 117.5 426.5t337.5 132.5q222 0 338.5 -132.5t116.5 -426.5t-117.5 -426.5t-337.5 -132.5t-337.5 132.5t-117.5 426.5zM311 539q0 -116 17 -195.5t50.5 -124t76.5 -63.5t102 -19t102 19t76 63.5t49.5 124t16.5 195.5t-16.5 195.5t-49.5 123.5t-76 63
t-102 19q-47 0 -83.5 -11.5t-67.5 -39t-51.5 -73t-32 -115t-11.5 -162.5z" />
    <glyph glyph-name="p" unicode="p" horiz-adv-x="1140" 
d="M150 -461v1524q32 14 100 14q31 0 57 -3.5t37 -7.5l10 -3v-98q90 133 295 133q90 0 158.5 -29t120.5 -93t79 -174t27 -263t-27 -263t-79 -174t-120.5 -93t-158.5 -29q-205 0 -295 133v-574q-34 -12 -104 -12q-30 0 -55 3t-35 6zM354 410q0 -111 60.5 -187t163.5 -76
q86 0 137.5 34t79.5 121t28 237q0 221 -58 306t-187 85q-103 0 -163.5 -74.5t-60.5 -183.5v-262z" />
    <glyph glyph-name="q" unicode="q" horiz-adv-x="1140" 
d="M106 539q0 153 27 263t79 174t121 93t159 29q201 0 294 -133v98q31 14 101 14q30 0 56 -3.5t37 -7.5l11 -3v-1524q-32 -12 -100 -12q-31 0 -57.5 3t-37.5 6l-10 3v574q-93 -133 -294 -133q-90 0 -159 29t-121 93t-79 174t-27 263zM317 539q0 -221 58.5 -306.5
t187.5 -85.5q100 0 160 73t63 179v273q0 109 -60.5 183.5t-162.5 74.5q-86 0 -137.5 -33.5t-80 -120.5t-28.5 -237z" />
    <glyph glyph-name="r" unicode="r" horiz-adv-x="806" 
d="M150 14v1049q30 14 102 14q30 0 55.5 -3.5t36.5 -7.5l10 -3v-141q105 174 250 174q97 0 178 -52q-9 -105 -90 -172q-58 43 -127 43q-59 0 -115 -41.5t-96 -113.5v-746q-34 -14 -102 -14q-32 0 -57.5 3.5t-34.5 6.5z" />
    <glyph glyph-name="s" unicode="s" horiz-adv-x="913" 
d="M98 53q0 99 56 152q15 -6 41 -14.5t98.5 -22.5t136.5 -14q197 0 197 147q0 31 -13 55t-27 39t-49 30t-54 21t-67 20q-5 2 -8 2.5t-7.5 2t-8.5 2.5q-50 15 -84.5 28t-77 38t-68 54.5t-43.5 76.5t-18 106q0 149 97.5 235.5t287.5 86.5q89 0 161.5 -14t99.5 -28l28 -14
q0 -95 -53 -145q-98 33 -215 33q-209 0 -209 -148q0 -21 6.5 -38.5t23 -31.5t30.5 -24t43 -21.5t46.5 -17.5t54.5 -17.5t54 -17.5q47 -15 80.5 -29t72 -39.5t62.5 -56t40.5 -77.5t16.5 -105q0 -157 -98.5 -242t-290.5 -85q-60 0 -117.5 7.5t-96.5 18t-69 21.5t-45 19z" />
    <glyph glyph-name="t" unicode="t" horiz-adv-x="776" 
d="M49 999q0 23 3 42.5t6 27.5l3 8h158v187q69 43 166 43q19 0 39 -2v-228h266q12 -27 12 -76q0 -21 -3 -40t-6 -28l-3 -9h-266v-537q0 -137 47 -189.5t158 -52.5q18 0 39.5 2.5t33.5 4.5l13 2q14 -35 14 -82q0 -21 -2.5 -39.5t-4.5 -26.5l-3 -8q-67 -18 -148 -18
q-185 0 -268.5 98.5t-83.5 298.5v547h-158q-12 28 -12 75z" />
    <glyph glyph-name="u" unicode="u" horiz-adv-x="1122" 
d="M141 289v774q35 14 103 14q31 0 56.5 -3.5t35.5 -7.5l10 -3v-737q0 -181 191 -181q68 0 129 34.5t102 96.5v787q36 14 102 14q32 0 57.5 -3.5t35.5 -7.5l10 -3v-1049q-31 -14 -103 -14q-29 0 -54.5 3.5t-36.5 6.5l-11 4v95q-114 -129 -309 -129q-151 0 -234.5 84
t-83.5 225z" />
    <glyph glyph-name="v" unicode="v" horiz-adv-x="1056" 
d="M39 1063q38 14 106 14q32 0 58.5 -3.5t37.5 -7.5l11 -3l221 -645q17 -51 31.5 -106t19.5 -84l6 -29h9q24 100 63 219l223 645q34 14 93 14q28 0 52 -3.5t34 -7.5l10 -3l-361 -1049q-51 -14 -123 -14q-34 0 -64.5 3.5t-43.5 6.5l-14 4z" />
    <glyph glyph-name="w" unicode="w" horiz-adv-x="1632" 
d="M51 1063q37 14 103 14q31 0 53 -3.5t29 -7.5l6 -3l194 -653q27 -89 43 -201h6q22 125 45 201l189 653q49 14 110 14q30 0 55.5 -3.5t35.5 -7.5l10 -3l182 -649q32 -109 41 -205h6q18 95 51 203l193 651q33 14 90 14q28 0 50 -3.5t30 -7.5l8 -3l-309 -1049
q-52 -14 -117 -14q-64 0 -119 14l-157 555q-48 172 -56 295h-8q-8 -133 -57 -295l-162 -555q-46 -14 -117 -14q-70 0 -119 14z" />
    <glyph glyph-name="x" unicode="x" horiz-adv-x="1030" 
d="M35 14l362 537l-340 512q41 14 113 14q33 0 61 -3.5t40 -7.5l12 -3l241 -363l244 363q35 14 98 14q31 0 58 -3.5t38 -7.5l11 -3l-340 -504l364 -545q-40 -14 -112 -14q-33 0 -61 3.5t-40 6.5l-12 4l-264 396l-266 -396q-38 -14 -101 -14q-30 0 -56.5 3.5t-38.5 6.5z" />
    <glyph glyph-name="y" unicode="y" horiz-adv-x="1077" 
d="M41 1063q38 14 106 14q31 0 58 -3.5t38 -7.5l11 -3l233 -623q23 -63 41 -122.5t24 -87.5l7 -29h8q21 96 66 237l203 625q32 14 100 14q26 0 50 -3.5t35 -7.5l11 -3l-395 -1221q-24 -74 -45.5 -124t-52 -97t-66.5 -74t-87 -43t-116 -16q-30 0 -58 5t-41 10l-13 5l-2 4
q-1 5 -3.5 12t-4.5 16t-3.5 21t-1.5 23q0 20 4 40t7.5 30t5.5 12q45 -8 92 -8q38 0 62.5 7t49.5 29t45.5 65.5t43.5 115.5l43 125q-44 4 -66 14z" />
    <glyph glyph-name="z" unicode="z" horiz-adv-x="956" 
d="M78 88q0 40 12 80l545 741h-510q-12 35 -12 86q0 24 3 44.5t6 28.5l3 9h725q12 -27 12 -80t-12 -88l-543 -741h543q12 -29 12 -84q0 -23 -3 -44t-6 -30l-3 -10h-760q-12 50 -12 88z" />
    <glyph glyph-name="braceleft" unicode="{" horiz-adv-x="710" 
d="M61 686q0 28 13 78h57q86 0 86 90v532q0 127 69.5 200t202.5 73h140q12 -30 12 -78q0 -38 -12 -78h-101q-122 0 -122 -121v-491q0 -145 -82 -205q82 -60 82 -207v-491q0 -121 122 -121h101q12 -34 12 -80t-12 -76h-140q-133 0 -202.5 73t-69.5 200v532q0 90 -86 90h-57
q-13 37 -13 80z" />
    <glyph glyph-name="bar" unicode="|" horiz-adv-x="569" 
d="M182 -389v1993q31 14 103 14q30 0 55.5 -3.5t35.5 -6.5l11 -4v-1993q-34 -14 -102 -14q-32 0 -57.5 3.5t-35.5 7.5z" />
    <glyph glyph-name="braceright" unicode="}" horiz-adv-x="712" 
d="M70 -213q0 45 12 80h100q64 0 93.5 30.5t29.5 90.5v491q0 144 80 207q-80 60 -80 205v491q0 60 -29.5 90.5t-93.5 30.5h-100q-12 40 -12 78q0 48 12 78h141q133 0 203 -73.5t70 -199.5v-532q0 -90 86 -90h55q12 -46 12 -78q0 -46 -12 -80h-55q-86 0 -86 -90v-532
q0 -126 -70 -199.5t-203 -73.5h-141q-12 30 -12 76z" />
    <glyph glyph-name="asciitilde" unicode="~" horiz-adv-x="1073" 
d="M137 582l8.5 14t26.5 31.5t46.5 40t68.5 31.5t92 14q45 0 89 -16.5t74 -36t72.5 -36t85.5 -16.5q27 0 52.5 8t41.5 19t28.5 22t17.5 19l6 8q38 -12 62 -39t30 -61l-8.5 -14t-27 -32t-47 -40.5t-69 -32t-92.5 -14.5q-45 0 -89 16.5t-74 35.5t-72.5 35.5t-85.5 16.5
q-27 0 -52 -7.5t-41 -18.5t-28 -22t-18 -19l-5 -7q-37 10 -61.5 37.5t-30.5 63.5z" />
    <glyph glyph-name="uni00A0" unicode="&#xa0;" horiz-adv-x="460" 
 />
    <glyph glyph-name="exclamdown" unicode="&#xa1;" horiz-adv-x="528" 
d="M154 -399l34 1067q27 12 74 12q22 0 41.5 -3t28.5 -6l8 -3l35 -1067q-33 -15 -111 -15q-33 0 -60.5 4t-38.5 8zM158 854v193q36 14 106 14q33 0 59.5 -3.5t36.5 -7.5l11 -3v-193q-33 -14 -107 -14q-31 0 -57.5 3.5t-37.5 6.5z" />
    <glyph glyph-name="cent" unicode="&#xa2;" horiz-adv-x="956" 
d="M115 539q0 508 379 555l-15 190q1 1 12 5t31.5 7.5t40.5 3.5q24 0 45 -4t30 -7t11 -5l-14 -188q64 -4 115 -16.5t70 -22.5l20 -10q-3 -86 -60 -140q-71 31 -180 31q-145 0 -209.5 -97.5t-64.5 -301.5q0 -202 67.5 -298t214.5 -96q50 0 98.5 8.5t71.5 17.5l23 9
q53 -47 59 -139q-8 -5 -24 -13.5t-74.5 -24.5t-126.5 -21l14 -189q-2 -2 -11.5 -5.5t-30.5 -7t-44 -3.5q-21 0 -41.5 3.5t-30.5 7t-12 5.5l15 191q-188 22 -283.5 162.5t-95.5 392.5z" />
    <glyph glyph-name="sterling" unicode="&#xa3;" horiz-adv-x="1089" 
d="M111 692q0 19 2.5 36t5.5 26t4 10h125q-53 150 -53 270q0 194 116.5 287.5t317.5 93.5q186 0 346 -69q9 -92 -60 -148q-121 44 -253 47q-118 0 -187 -52t-69 -165q0 -41 9.5 -92t18 -80.5l27.5 -91.5h373l1 -4q1 -4 3 -10t4 -14t3 -19.5t1 -22.5q0 -12 -1 -24.5t-3 -21.5
t-4 -16t-3 -12l-1 -4h-338q13 -73 12.5 -140.5t-37.5 -144t-111 -147.5h607q2 -2 5.5 -12t7 -32.5t3.5 -47.5q0 -24 -3.5 -46.5t-7 -33t-5.5 -12.5h-824v184q63 60 101 117.5t51 112t11.5 101t-15.5 101.5h-168q-1 1 -4 9.5t-5.5 27t-2.5 39.5z" />
    <glyph glyph-name="yen" unicode="&#xa5;" horiz-adv-x="1265" 
d="M63 1382q39 19 113 19q32 0 59.5 -4.5t39.5 -8.5l12 -4l346 -610l371 612q38 15 106 15q27 0 52 -3.5t36 -7.5l12 -4l-422 -688h265q10 -27 10 -63q0 -33 -10 -66h-332v-147h332q10 -27 10 -62q0 -37 -10 -67h-332v-279q-33 -14 -96 -14q-27 0 -51 3.5t-34 6.5l-10 4v279
h-335q-11 37 -11 67q0 33 11 62h335v147h-335q-11 37 -11 66q0 34 11 63h266z" />
    <glyph glyph-name="section" unicode="&#xa7;" horiz-adv-x="989" 
d="M125 690q0 124 119 230q-99 75 -99 206q0 142 100 214.5t273 72.5q136 0 285 -45q5 -33 -5.5 -71t-35.5 -60q-120 29 -213 29q-225 0 -225 -138q0 -41 29.5 -69.5t77 -44.5t105 -30t115 -33t105 -46.5t77 -77t29.5 -118.5q0 -114 -108 -217q120 -75 120 -226
q0 -77 -32 -133.5t-89.5 -89t-129 -48t-158.5 -15.5q-84 0 -167 12.5t-124 25.5l-41 13q-8 38 2.5 75.5t40.5 59.5q153 -35 264 -35q244 0 244 137q0 41 -31 70t-80 45.5t-109 31t-119.5 34t-108.5 47t-80 77t-31 117.5zM299 717q0 -28 14 -50t34.5 -36t55.5 -26t64.5 -19
l75.5 -18t75 -19q70 70 70 133q0 33 -17.5 57t-53 40t-69.5 25.5t-88 23t-87 24.5q-74 -70 -74 -135z" />
    <glyph glyph-name="dieresis" unicode="&#xa8;" horiz-adv-x="931" 
d="M190 1264v166q32 12 95 12q26 0 49 -3t33 -6l10 -3v-166q-33 -13 -92 -13q-28 0 -52 3.5t-33 6.5zM539 1264v166q29 12 92 12q27 0 50.5 -3t33.5 -6l10 -3v-166q-33 -13 -94 -13q-28 0 -51 3.5t-32 6.5z" />
    <glyph glyph-name="copyright" unicode="&#xa9;" horiz-adv-x="1640" 
d="M113 696q0 192 95 355t258 257.5t355 94.5q144 0 275 -56t225.5 -150.5t150.5 -225.5t56 -275q0 -192 -94.5 -355t-257.5 -258t-355 -95q-144 0 -275 56t-226 151t-151 226t-56 275zM248 696q0 -117 45.5 -223t122 -182.5t182.5 -122t223 -45.5q156 0 287.5 76.5
t208 208.5t76.5 288t-76.5 287.5t-208 208t-287.5 76.5t-288 -76.5t-208.5 -208t-76.5 -287.5zM469 711q0 201 90.5 304t267.5 103q60 0 114 -11t77 -23l24 -11q0 -67 -49 -110q-73 32 -151 32q-107 0 -163 -66t-56 -220q0 -149 56.5 -213t162.5 -64q38 0 78.5 6t61.5 12
l22 7q49 -31 49 -109q-10 -5 -28 -13t-76.5 -21t-121.5 -13q-176 0 -267 106t-91 304z" />
    <glyph glyph-name="ordfeminine" unicode="&#xaa;" horiz-adv-x="739" 
d="M104 815q0 203 244 203q107 0 131 -6v45q0 112 -117 112q-37 0 -79 -7.5t-65 -15.5l-23 -7q-39 46 -39 102l30.5 13.5t78 22t114.5 13.5q127 0 183 -55.5t56 -171.5v-434q-18 -13 -55 -13q-15 0 -29 3t-21 7l-7 3l-14 59q-28 -39 -77.5 -61.5t-111.5 -22.5q-91 0 -145 55
t-54 156zM119 381q-19 64 0 119h493q21 -55 0 -119h-493zM246 815q0 -98 100 -98q63 0 98 45t35 112v37q-16 4 -114 4q-119 0 -119 -100z" />
    <glyph glyph-name="guillemotleft" unicode="&#xab;" horiz-adv-x="1067" 
d="M94 545q0 25 4 48t8 33l3 11l415 405q54 -42 68 -120l-320 -371l320 -369q-14 -79 -68 -121l-415 402q-15 31 -15 82zM489 545q0 24 3.5 46t7.5 32l4 10l389 379q46 -33 65 -115l-296 -346l296 -344q-19 -82 -65 -115l-389 375q-15 29 -15 78z" />
    <glyph glyph-name="logicalnot" unicode="&#xac;" horiz-adv-x="1239" 
d="M109 811q0 24 4.5 46t8.5 32l5 10h958v-541q-31 -18 -86 -18q-24 0 -46 4.5t-32 9.5l-10 4v367h-784q-18 37 -18 86z" />
    <glyph glyph-name="uni00AD" unicode="&#xad;" horiz-adv-x="733" 
d="M141 594q0 21 3.5 40t6.5 28l3 8h426q12 -29 12 -76q0 -21 -3 -40t-6 -28l-3 -8h-426q-13 29 -13 76z" />
    <glyph glyph-name="registered" unicode="&#xae;" horiz-adv-x="1126" 
d="M123 965q0 183 128.5 311.5t311.5 128.5t312 -128.5t129 -311.5t-129 -312t-312 -129t-311.5 129t-128.5 312zM213 965q0 -146 102.5 -248.5t247.5 -102.5q146 0 248 102.5t102 248.5t-102 248t-248 102q-145 0 -247.5 -102t-102.5 -248zM408 748v458h186q73 0 115.5 -38
t42.5 -103q0 -47 -23.5 -81.5t-66.5 -49.5l118 -180q-24 -15 -55 -15q-13 0 -24.5 2.5t-16.5 4.5l-6 2l-117 176h-65v-176q-20 -9 -43 -9q-12 0 -23.5 2.5t-16.5 4.5zM496 999h92q71 0 71 66q0 68 -71 68h-92v-134z" />
    <glyph glyph-name="macron" unicode="&#xaf;" horiz-adv-x="833" 
d="M84 1290q-22 66 0 125h637q25 -57 0 -125h-637z" />
    <glyph glyph-name="degree" unicode="&#xb0;" horiz-adv-x="720" 
d="M98 1264q0 104 70.5 182t193.5 78q122 0 190.5 -76t68.5 -178q0 -103 -68.5 -178.5t-190.5 -75.5q-127 0 -195.5 73t-68.5 175zM215 1266q0 -59 37 -100.5t108 -41.5q68 0 105 42t37 102t-37 102.5t-105 42.5t-106.5 -44t-38.5 -103z" />
    <glyph glyph-name="plusminus" unicode="&#xb1;" horiz-adv-x="1044" 
d="M143 336q0 21 3.5 40t6.5 28l3 8h733q12 -29 12 -76q0 -21 -3 -40t-6 -28l-3 -8h-733q-13 29 -13 76zM143 823q0 21 3.5 40t6.5 27l3 9h290v229q29 13 76 13q21 0 40 -3.5t28 -6.5l8 -3v-229h291q12 -29 12 -76q0 -21 -3 -39.5t-6 -27.5l-3 -8h-291v-230q-29 -12 -76 -12
q-21 0 -40 3t-28 6l-8 3v230h-290q-13 28 -13 75z" />
    <glyph glyph-name="acute" unicode="&#xb4;" horiz-adv-x="458" 
d="M43 1368l195 289q49 6 101.5 -17t76.5 -59l-256 -276q-82 13 -117 63z" />
    <glyph glyph-name="uni00B5" unicode="&#xb5;" horiz-adv-x="1189" 
d="M176 -29v1092q35 14 103 14q32 0 57.5 -3.5t35.5 -7.5l9 -3v-739q0 -179 192 -179q69 0 130 37t100 94v787q34 14 102 14q32 0 57.5 -3.5t35.5 -7.5l10 -3v-1049q-31 -14 -103 -14q-30 0 -55.5 3.5t-35.5 6.5l-11 4v78q-95 -112 -258 -112q-122 0 -197 71
q10 -156 31 -285.5t37 -181.5l16 -51q-40 -32 -108.5 -41.5t-114.5 6.5q-4 15 -9.5 46t-14.5 153t-9 274z" />
    <glyph glyph-name="paragraph" unicode="&#xb6;" horiz-adv-x="1200" 
d="M57 1053q2 73 26.5 139.5t70 121t119 86.5t163.5 32h148v-1887q-27 -10 -80 -10q-25 0 -45.5 2.5t-28.5 4.5l-8 3v1129q-89 1 -160.5 34.5t-115.5 87t-67 120t-22 137.5zM846 -455v1876q25 11 80 11q24 0 44.5 -3t29.5 -5l8 -3v-1876q-29 -10 -82 -10q-24 0 -44 2.5
t-28 4.5z" />
    <glyph glyph-name="periodcentered" unicode="&#xb7;" horiz-adv-x="471" 
d="M141 500v166q29 14 95 14q27 0 50.5 -3.5t33.5 -6.5l10 -4v-166q-33 -15 -94 -15q-29 0 -53 3.5t-33 7.5z" />
    <glyph glyph-name="cedilla" unicode="&#xb8;" horiz-adv-x="606" 
d="M92 -403q-3 60 43 86q58 -29 133 -29q129 0 129 104q0 43 -28 69t-86 26h-74l-27 28l41 219l113 -26l-23 -127q111 0 162 -52t51 -143q0 -100 -65 -152.5t-182 -52.5q-54 0 -100.5 12.5t-66.5 24.5z" />
    <glyph glyph-name="ordmasculine" unicode="&#xba;" horiz-adv-x="768" 
d="M106 948q0 181 70 261.5t209 80.5t209 -79.5t70 -262.5t-70 -263.5t-209 -80.5q-140 0 -209.5 80.5t-69.5 263.5zM125 442q0 26 8 58h500q8 -32 8 -58q0 -29 -8 -61h-500q-8 32 -8 61zM252 948q0 -132 30.5 -179.5t102.5 -47.5q70 0 100.5 48t30.5 179q0 129 -31 178.5
t-100 49.5q-71 0 -102 -49t-31 -179z" />
    <glyph glyph-name="guillemotright" unicode="&#xbb;" horiz-adv-x="1067" 
d="M111 207l297 344l-297 346q15 78 63 115l389 -379q15 -33 15 -88q0 -22 -4 -41.5t-8 -27.5l-3 -9l-389 -375q-48 37 -63 115zM475 182l320 369l-320 371q18 82 70 120l413 -405q17 -35 17 -92q0 -23 -4.5 -43.5t-8.5 -29.5l-4 -9l-413 -402q-51 38 -70 121z" />
    <glyph glyph-name="questiondown" unicode="&#xbf;" horiz-adv-x="878" 
d="M76 8q0 81 20 144.5t52.5 104t71.5 74l78 64.5t71.5 65.5t52.5 86.5t20 119q25 14 78 14q23 0 43.5 -3.5t29.5 -6.5l9 -4q0 -89 -17.5 -157.5t-45 -110.5t-60.5 -75t-66.5 -61t-61 -59t-45 -77.5t-17.5 -107.5q0 -196 231 -196q65 0 124 12t86 24l26 11q73 -51 63 -145
q-14 -8 -40 -20t-111 -32t-176 -20q-189 0 -302.5 90t-113.5 266zM416 858v193q36 14 106 14q33 0 59.5 -3.5t36.5 -7.5l11 -3v-193q-33 -14 -107 -14q-31 0 -57.5 3.5t-37.5 6.5z" />
    <glyph glyph-name="Agrave" unicode="&#xc0;" horiz-adv-x="1339" 
d="M33 14l514 1446q51 15 123 15q35 0 65.5 -3.5t44.5 -7.5l13 -4l514 -1446q-37 -14 -113 -14q-31 0 -56.5 3.5t-35.5 6.5l-10 4l-127 361h-607l-129 -361q-34 -14 -100 -14q-28 0 -52 3.5t-34 6.5zM418 545h487l-186 518q-16 47 -29.5 93t-18.5 68l-5 23h-7
q-18 -82 -53 -184zM426 1815q22 35 75.5 58t102.5 17l195 -288q-36 -51 -117 -64z" />
    <glyph glyph-name="Aacute" unicode="&#xc1;" horiz-adv-x="1339" 
d="M33 14l514 1446q51 15 123 15q35 0 65.5 -3.5t44.5 -7.5l13 -4l514 -1446q-37 -14 -113 -14q-31 0 -56.5 3.5t-35.5 6.5l-10 4l-127 361h-607l-129 -361q-34 -14 -100 -14q-28 0 -52 3.5t-34 6.5zM418 545h487l-186 518q-16 47 -29.5 93t-18.5 68l-5 23h-7
q-18 -82 -53 -184zM557 1604l195 288q49 6 101.5 -16.5t76.5 -58.5l-256 -277q-81 13 -117 64z" />
    <glyph glyph-name="Acircumflex" unicode="&#xc2;" horiz-adv-x="1339" 
d="M33 14l514 1446q51 15 123 15q35 0 65.5 -3.5t44.5 -7.5l13 -4l514 -1446q-37 -14 -113 -14q-31 0 -56.5 3.5t-35.5 6.5l-10 4l-127 361h-607l-129 -361q-34 -14 -100 -14q-28 0 -52 3.5t-34 6.5zM354 1640l281 234h53l283 -234q-32 -73 -94 -90l-215 146l-213 -146
q-61 20 -95 90zM418 545h487l-186 518q-16 47 -29.5 93t-18.5 68l-5 23h-7q-18 -82 -53 -184z" />
    <glyph glyph-name="Atilde" unicode="&#xc3;" horiz-adv-x="1339" 
d="M33 14l514 1446q51 15 123 15q35 0 65.5 -3.5t44.5 -7.5l13 -4l514 -1446q-37 -14 -113 -14q-31 0 -56.5 3.5t-35.5 6.5l-10 4l-127 361h-607l-129 -361q-34 -14 -100 -14q-28 0 -52 3.5t-34 6.5zM373 1634q2 5 6 12.5t19.5 27t33.5 34.5t49 29t66 16q50 3 91.5 -15.5
t76.5 -37.5t69 -17q24 1 44.5 14.5t29.5 26.5l8 13q72 -15 99 -70q-2 -4 -7 -11.5t-21.5 -26t-36 -33.5t-51.5 -27.5t-67 -14.5q-39 -2 -73.5 8.5t-55 24.5t-48 25t-54.5 10q-28 -2 -49.5 -15t-29.5 -25l-7 -13q-33 5 -58 22t-34 43zM418 545h487l-186 518q-16 47 -29.5 93
t-18.5 68l-5 23h-7q-18 -82 -53 -184z" />
    <glyph glyph-name="Adieresis" unicode="&#xc4;" horiz-adv-x="1339" 
d="M33 14l514 1446q51 15 123 15q35 0 65.5 -3.5t44.5 -7.5l13 -4l514 -1446q-37 -14 -113 -14q-31 0 -56.5 3.5t-35.5 6.5l-10 4l-127 361h-607l-129 -361q-34 -14 -100 -14q-28 0 -52 3.5t-34 6.5zM397 1561v165q29 13 92 13q27 0 51 -3.5t34 -6.5l10 -3v-165
q-34 -13 -95 -13q-28 0 -51 3t-32 7zM418 545h487l-186 518q-16 47 -29.5 93t-18.5 68l-5 23h-7q-18 -82 -53 -184zM745 1561v165q30 13 93 13q27 0 50.5 -3.5t33.5 -6.5l10 -3v-165q-33 -13 -94 -13q-28 0 -51.5 3t-32.5 7z" />
    <glyph glyph-name="Aring" unicode="&#xc5;" horiz-adv-x="1339" 
d="M33 14l497 1399q-51 27 -80.5 76.5t-29.5 116.5q0 105 73 165t173 60q99 0 173 -59.5t74 -165.5q0 -63 -29 -111t-77 -76l500 -1405q-37 -14 -113 -14q-31 0 -56.5 3.5t-35.5 6.5l-10 4l-127 361h-607l-129 -361q-34 -14 -100 -14q-28 0 -52 3.5t-34 6.5zM418 545h487
l-186 518q-16 47 -29.5 93t-18.5 68l-5 23h-7q-18 -82 -53 -184zM537 1606q0 -51 33 -87t94 -36q62 0 96.5 36.5t34.5 86.5q0 49 -34.5 84.5t-96.5 35.5q-61 0 -94 -36t-33 -84z" />
    <glyph glyph-name="AE" unicode="&#xc6;" horiz-adv-x="1771" 
d="M10 16l887 1459h750q19 -44 17.5 -88t-17.5 -82h-545v-476h442q32 -88 0 -170h-442v-489h565q17 -43 17 -89t-17 -81h-758v367h-469l-209 -351q-46 -16 -112 -16q-76 0 -109 16zM541 537h368v616z" />
    <glyph glyph-name="Ccedilla" unicode="&#xc7;" horiz-adv-x="1150" 
d="M119 737q0 372 152 565t446 193q100 0 187.5 -17.5t125.5 -35.5l37 -17q6 -35 -14 -82q-8 -23 -20.5 -40.5t-20.5 -24.5l-8 -6q-13 5 -37 13t-93.5 21t-134.5 13q-74 0 -132.5 -16.5t-110 -57.5t-85.5 -106.5t-53.5 -167.5t-19.5 -236t19.5 -235t53.5 -165t85.5 -104
t110 -55.5t132.5 -15.5q73 0 144 12t106 24l35 11q29 -23 47 -70q9 -21 13 -43t4 -34l-1 -11q-5 -3 -15 -7.5t-45 -16t-73.5 -20.5t-100 -16.5t-126.5 -8.5l-12 -74q111 0 162 -52t51 -143q0 -100 -65.5 -152.5t-182.5 -52.5q-54 0 -100.5 12.5t-65.5 25.5l-20 12
q-3 60 43 86q58 -29 133 -29q129 0 129 104q0 43 -28.5 69t-86.5 26h-74l-26 28l26 148q-243 32 -367 221t-124 528z" />
    <glyph glyph-name="Egrave" unicode="&#xc8;" 
d="M182 0v1475h832q16 -50 16 -80q0 -47 -16 -90h-623v-476h520q17 -53 17 -81q0 -40 -17 -86h-520v-492h643q17 -57 17 -82q0 -39 -17 -88h-852zM352 1815q22 35 75.5 58t102.5 17l195 -288q-36 -51 -117 -64z" />
    <glyph glyph-name="Eacute" unicode="&#xc9;" 
d="M182 0v1475h832q16 -50 16 -80q0 -47 -16 -90h-623v-476h520q17 -53 17 -81q0 -40 -17 -86h-520v-492h643q17 -57 17 -82q0 -39 -17 -88h-852zM438 1606l195 288q49 6 101.5 -16.5t76.5 -58.5l-256 -277q-81 13 -117 64z" />
    <glyph glyph-name="Ecircumflex" unicode="&#xca;" 
d="M182 0v1475h832q16 -50 16 -80q0 -47 -16 -90h-623v-476h520q17 -53 17 -81q0 -40 -17 -86h-520v-492h643q17 -57 17 -82q0 -39 -17 -88h-852zM287 1640l282 234h54l282 -234q-36 -74 -94 -90l-215 146l-213 -146q-62 20 -96 90z" />
    <glyph glyph-name="Edieresis" unicode="&#xcb;" 
d="M182 0v1475h832q16 -50 16 -80q0 -47 -16 -90h-623v-476h520q17 -53 17 -81q0 -40 -17 -86h-520v-492h643q17 -57 17 -82q0 -39 -17 -88h-852zM328 1561v165q28 13 94 13q26 0 49 -3.5t33 -6.5l10 -3v-165q-33 -13 -92 -13q-29 0 -52.5 3t-32.5 7zM676 1561v165
q29 13 92 13q27 0 50.5 -3.5t33.5 -6.5l10 -3v-165q-33 -13 -94 -13q-28 0 -51 3t-32 7z" />
    <glyph glyph-name="Igrave" unicode="&#xcc;" horiz-adv-x="573" 
d="M55 1815q22 35 75.5 58t102.5 17l195 -288q-36 -51 -117 -64zM182 14v1446q35 15 103 15q32 0 58.5 -3.5t36.5 -7.5l11 -4v-1446q-36 -14 -104 -14q-33 0 -59 3.5t-36 6.5z" />
    <glyph glyph-name="Iacute" unicode="&#xcd;" horiz-adv-x="573" 
d="M121 1606l194 288q49 6 102 -16.5t77 -58.5l-256 -277q-81 13 -117 64zM182 14v1446q35 15 103 15q32 0 58.5 -3.5t36.5 -7.5l11 -4v-1446q-36 -14 -104 -14q-33 0 -59 3.5t-36 6.5z" />
    <glyph glyph-name="Icircumflex" unicode="&#xce;" horiz-adv-x="573" 
d="M-23 1640l283 234h53l283 -234q-36 -73 -94 -90l-215 146l-213 -146q-63 21 -97 90zM182 14v1446q35 15 103 15q32 0 58.5 -3.5t36.5 -7.5l11 -4v-1446q-36 -14 -104 -14q-33 0 -59 3.5t-36 6.5z" />
    <glyph glyph-name="Idieresis" unicode="&#xcf;" horiz-adv-x="573" 
d="M20 1561v165q32 13 95 13q26 0 49 -3.5t33 -6.5l10 -3v-165q-33 -13 -92 -13q-28 0 -52 3t-33 7zM182 14v1446q35 15 103 15q32 0 58.5 -3.5t36.5 -7.5l11 -4v-1446q-36 -14 -104 -14q-33 0 -59 3.5t-36 6.5zM369 1561v165q29 13 92 13q27 0 50.5 -3.5t33.5 -6.5l10 -3
v-165q-33 -13 -94 -13q-28 0 -51 3t-32 7z" />
    <glyph glyph-name="Eth" unicode="&#xd0;" horiz-adv-x="1386" 
d="M36 732q0 41 9 69h162v674h455q146 0 254.5 -39.5t188 -125.5t119.5 -229t40 -344t-40 -344t-119.5 -228.5t-188 -125t-254.5 -39.5h-455v659h-162q-9 32 -9 73zM416 174h231q76 0 133.5 14t108 51.5t82.5 100t50.5 162t18.5 235.5t-18.5 236t-50.5 162.5t-82.5 99.5
t-108 51t-133.5 14h-231v-499h291q10 -30 9.5 -71t-9.5 -71h-291v-485z" />
    <glyph glyph-name="Ntilde" unicode="&#xd1;" horiz-adv-x="1433" 
d="M182 14v1446q43 15 125 15q36 0 67 -3.5t44 -7.5l12 -4l508 -923q34 -59 66 -127.5t48 -107.5l15 -38h6q-14 152 -14 342v854q30 15 98 15q30 0 53.5 -3.5t31.5 -7.5l9 -4v-1446q-39 -14 -121 -14q-36 0 -67.5 3.5t-44.5 6.5l-14 4l-515 932q-34 59 -64 125t-43 103
l-13 36h-9q15 -137 15 -344v-852q-31 -14 -99 -14q-29 0 -52.5 3.5t-32.5 6.5zM449 1655q2 4 7 11t22.5 24t37 30t52 24t67.5 11q50 0 89.5 -17.5t72.5 -34.5t67 -17q17 0 33.5 5.5t27.5 13t19.5 15.5t12.5 14l4 5q28 -10 48.5 -36.5t26.5 -57.5q-3 -5 -9.5 -13t-24 -23.5
t-37.5 -28t-51 -22.5t-64 -10q-50 0 -89 17t-71.5 34t-66.5 17q-28 0 -52.5 -13t-35.5 -27l-11 -13q-64 34 -75 92z" />
    <glyph glyph-name="Ograve" unicode="&#xd2;" horiz-adv-x="1392" 
d="M119 737q0 384 151.5 571t425.5 187q275 0 426.5 -186t151.5 -572t-150.5 -571.5t-427.5 -185.5t-427 185t-150 572zM338 737q0 -134 16.5 -234.5t46.5 -166.5t75.5 -107t98.5 -58t121 -17t121.5 17t99 58t75.5 107t46.5 166.5t16.5 234.5q0 166 -24.5 281.5t-73.5 181
t-112 93.5t-149 28q-85 0 -148 -28t-111.5 -93.5t-73.5 -181t-25 -281.5zM496 1815q22 35 75.5 58t102.5 17l188 -282q-37 -51 -117 -64z" />
    <glyph glyph-name="Oacute" unicode="&#xd3;" horiz-adv-x="1392" 
d="M119 737q0 384 151.5 571t425.5 187q275 0 426.5 -186t151.5 -572t-150.5 -571.5t-427.5 -185.5t-427 185t-150 572zM338 737q0 -134 16.5 -234.5t46.5 -166.5t75.5 -107t98.5 -58t121 -17t121.5 17t99 58t75.5 107t46.5 166.5t16.5 234.5q0 166 -24.5 281.5t-73.5 181
t-112 93.5t-149 28q-85 0 -148 -28t-111.5 -93.5t-73.5 -181t-25 -281.5zM647 1651l191 282q50 5 102.5 -17.5t75.5 -57.5l-252 -273q-81 13 -117 66z" />
    <glyph glyph-name="Ocircumflex" unicode="&#xd4;" horiz-adv-x="1392" 
d="M119 737q0 384 151.5 571t425.5 187q275 0 426.5 -186t151.5 -572t-150.5 -571.5t-427.5 -185.5t-427 185t-150 572zM338 737q0 -134 16.5 -234.5t46.5 -166.5t75.5 -107t98.5 -58t121 -17t121.5 17t99 58t75.5 107t46.5 166.5t16.5 234.5q0 166 -24.5 281.5t-73.5 181
t-112 93.5t-149 28q-85 0 -148 -28t-111.5 -93.5t-73.5 -181t-25 -281.5zM391 1640l281 234h53l283 -234q-36 -73 -95 -90l-215 146l-213 -146q-60 19 -94 90z" />
    <glyph glyph-name="Otilde" unicode="&#xd5;" horiz-adv-x="1392" 
d="M119 737q0 384 151.5 571t425.5 187q275 0 426.5 -186t151.5 -572t-150.5 -571.5t-427.5 -185.5t-427 185t-150 572zM338 737q0 -134 16.5 -234.5t46.5 -166.5t75.5 -107t98.5 -58t121 -17t121.5 17t99 58t75.5 107t46.5 166.5t16.5 234.5q0 166 -24.5 281.5t-73.5 181
t-112 93.5t-149 28q-85 0 -148 -28t-111.5 -93.5t-73.5 -181t-25 -281.5zM412 1673q2 4 6.5 11t21 24.5t36 31t51 25.5t65.5 13q63 2 128 -29.5t103 -30.5q28 1 51.5 15.5t33.5 28.5l10 14q28 -10 49.5 -35.5t27.5 -54.5q-2 -4 -6.5 -11t-21 -25t-36 -31.5t-51 -25
t-65.5 -12.5q-52 -2 -121.5 29t-109.5 30q-18 -1 -34 -7t-26.5 -14t-19 -16.5t-12.5 -14.5l-3 -5q-62 27 -77 90z" />
    <glyph glyph-name="Odieresis" unicode="&#xd6;" horiz-adv-x="1392" 
d="M119 737q0 384 151.5 571t425.5 187q275 0 426.5 -186t151.5 -572t-150.5 -571.5t-427.5 -185.5t-427 185t-150 572zM338 737q0 -134 16.5 -234.5t46.5 -166.5t75.5 -107t98.5 -58t121 -17t121.5 17t99 58t75.5 107t46.5 166.5t16.5 234.5q0 166 -24.5 281.5t-73.5 181
t-112 93.5t-149 28q-85 0 -148 -28t-111.5 -93.5t-73.5 -181t-25 -281.5zM432 1581v166q28 12 94 12q26 0 49 -3t33 -6l10 -3v-166q-33 -12 -92 -12q-29 0 -52.5 3t-32.5 6zM780 1581v166q29 12 92 12q27 0 51 -3t34 -6l10 -3v-166q-34 -12 -95 -12q-28 0 -51 3t-32 6z" />
    <glyph glyph-name="Oslash" unicode="&#xd8;" horiz-adv-x="1390" 
d="M117 737q0 384 151.5 571t425.5 187q175 0 303 -76l90 152q40 -3 79 -22t65 -46l-115 -190q156 -192 156 -576q0 -386 -150.5 -571.5t-427.5 -185.5q-186 0 -319 86l-94 -162q-94 3 -146 67l123 205q-141 189 -141 561zM336 737q0 -226 51 -348l514 871q-77 61 -207 61
q-85 0 -148 -28t-111.5 -93.5t-73.5 -181t-25 -281.5zM475 229q78 -75 219 -75q68 0 121.5 17t99 58t75.5 107t46.5 166.5t16.5 234.5q0 235 -62 369z" />
    <glyph glyph-name="Ugrave" unicode="&#xd9;" horiz-adv-x="1376" 
d="M172 500v960q34 15 102 15q31 0 57.5 -3.5t36.5 -7.5l11 -4v-993q0 -148 81.5 -229.5t229.5 -81.5q149 0 229 81.5t80 229.5v993q33 15 101 15q30 0 56 -3.5t37 -7.5l11 -4v-960q0 -247 -140 -383.5t-378 -136.5q-236 0 -375 137.5t-139 382.5zM440 1815q22 35 75.5 58
t102.5 17l189 -280q-36 -53 -117 -66z" />
    <glyph glyph-name="Uacute" unicode="&#xda;" horiz-adv-x="1376" 
d="M172 500v960q34 15 102 15q31 0 57.5 -3.5t36.5 -7.5l11 -4v-993q0 -148 81.5 -229.5t229.5 -81.5q149 0 229 81.5t80 229.5v993q33 15 101 15q30 0 56 -3.5t37 -7.5l11 -4v-960q0 -247 -140 -383.5t-378 -136.5q-236 0 -375 137.5t-139 382.5zM547 1606l194 288
q49 6 102 -16.5t77 -58.5l-256 -277q-81 13 -117 64z" />
    <glyph glyph-name="Ucircumflex" unicode="&#xdb;" horiz-adv-x="1376" 
d="M172 500v960q34 15 102 15q31 0 57.5 -3.5t36.5 -7.5l11 -4v-993q0 -148 81.5 -229.5t229.5 -81.5q149 0 229 81.5t80 229.5v993q33 15 101 15q30 0 56 -3.5t37 -7.5l11 -4v-960q0 -247 -140 -383.5t-378 -136.5q-236 0 -375 137.5t-139 382.5zM395 1640l283 234h53
l283 -234q-36 -73 -94 -90l-215 146l-213 -146q-63 21 -97 90z" />
    <glyph glyph-name="Udieresis" unicode="&#xdc;" horiz-adv-x="1376" 
d="M172 500v960q34 15 102 15q31 0 57.5 -3.5t36.5 -7.5l11 -4v-993q0 -148 81.5 -229.5t229.5 -81.5q149 0 229 81.5t80 229.5v993q33 15 101 15q30 0 56 -3.5t37 -7.5l11 -4v-960q0 -247 -140 -383.5t-378 -136.5q-236 0 -375 137.5t-139 382.5zM424 1571v168q31 12 94 12
q26 0 49 -3t33 -6l10 -3v-168q-33 -12 -92 -12q-28 0 -51.5 3t-32.5 6zM772 1571v168q29 12 92 12q27 0 50.5 -3t33.5 -6l10 -3v-168q-33 -12 -94 -12q-28 0 -51 3t-32 6z" />
    <glyph glyph-name="Yacute" unicode="&#xdd;" horiz-adv-x="1298" 
d="M39 1460q45 15 127 15q34 0 63.5 -3.5t42.5 -7.5l13 -4l374 -633l385 633q37 15 109 15q31 0 60.5 -3.5t42.5 -7.5l14 -4l-518 -844v-602q-35 -14 -103 -14q-33 0 -59.5 3.5t-36.5 6.5l-10 4v598zM522 1606l195 288q49 6 101.5 -16.5t76.5 -58.5l-256 -277
q-81 13 -117 64z" />
    <glyph glyph-name="Thorn" unicode="&#xde;" horiz-adv-x="1245" 
d="M182 14v1446q35 15 103 15q32 0 58.5 -3.5t36.5 -7.5l11 -4v-262h326q201 0 320.5 -120t119.5 -318t-119.5 -317t-320.5 -119h-326v-310q-36 -14 -104 -14q-33 0 -59 3.5t-36 6.5zM391 498h299q121 0 185.5 68.5t64.5 193.5t-64.5 194.5t-185.5 69.5h-299v-526z" />
    <glyph glyph-name="germandbls" unicode="&#xdf;" horiz-adv-x="1171" 
d="M150 14v1125q0 200 112.5 298.5t323.5 98.5q99 0 177.5 -29t126 -79.5t72 -113.5t23.5 -134q0 -96 -43 -193q-8 -1 -21.5 -3t-47.5 -14.5t-59.5 -30t-47 -52.5t-21.5 -80q0 -42 19.5 -76.5t51 -60t69.5 -50.5t75.5 -55t69 -65.5t51 -89.5t19.5 -121q0 -151 -93.5 -230
t-254.5 -79q-63 0 -120 9.5t-82 18.5l-26 10q-9 84 43 142q71 -23 154 -23q85 0 134.5 37.5t49.5 108.5q0 42 -19.5 78t-51 63t-69.5 53t-76 55t-69.5 63t-51 83t-19.5 108q0 45 11.5 84t30 66.5t41 49.5t45.5 35.5t41.5 23t29.5 13.5l12 3q20 63 20 115q-2 86 -51 141
t-145 55q-119 0 -174.5 -57.5t-55.5 -175.5v-1125q-34 -14 -102 -14q-32 0 -57.5 3.5t-34.5 6.5z" />
    <glyph glyph-name="agrave" unicode="&#xe0;" horiz-adv-x="1054" 
d="M82 322q0 321 393 321q128 0 234 -12v86q0 104 -49 156.5t-162 52.5q-64 0 -132.5 -13t-105.5 -26l-37 -13l-3 2q-2 3 -5.5 5.5t-8.5 8t-9.5 11.5t-10 15.5t-10.5 19.5q-3 8 -5.5 16t-4 15t-2.5 14.5t-1 13v10.5t0.5 8.5t0.5 6.5v2q6 3 17.5 8t49 18.5t77 23.5t98.5 18
t116 8q216 0 303.5 -96t87.5 -302v-686q-22 -14 -79 -14q-23 0 -43.5 3.5t-29.5 6.5l-9 4l-31 131q-80 -165 -322 -165q-148 0 -232.5 87.5t-84.5 254.5zM248 1513q22 36 75.5 59t102.5 17l195 -289q-35 -50 -117 -63zM293 322q0 -185 178 -185q78 0 133 41.5t80 104
t25 137.5v72q-141 12 -207 12q-104 0 -156.5 -44t-52.5 -138z" />
    <glyph glyph-name="aacute" unicode="&#xe1;" horiz-adv-x="1054" 
d="M82 322q0 321 393 321q128 0 234 -12v84q0 107 -48 159t-163 52q-64 0 -132.5 -13t-105.5 -26l-37 -13l-3 2q-2 3 -5.5 5.5t-8.5 8t-9.5 11.5t-10 15.5t-10.5 19.5q-3 8 -5.5 16t-4 15t-2.5 14.5t-1 13v10.5t0.5 8.5t0.5 6.5v2q6 3 17.5 8t49 18.5t77 23.5t98.5 18t116 8
q216 0 303.5 -96t87.5 -302v-686q-22 -14 -79 -14q-23 0 -43.5 3.5t-29.5 6.5l-9 4l-31 131q-80 -165 -322 -165q-148 0 -232.5 87.5t-84.5 254.5zM293 322q0 -185 178 -185q78 0 133 41.5t80 104t25 137.5v72q-141 12 -207 12q-104 0 -156.5 -44t-52.5 -138zM373 1300
l192 289q50 6 103 -17t77 -59l-256 -276q-80 13 -116 63z" />
    <glyph glyph-name="acircumflex" unicode="&#xe2;" horiz-adv-x="1054" 
d="M82 322q0 321 393 321q128 0 234 -12v90q0 104 -49 154.5t-162 50.5q-64 0 -132.5 -13t-105.5 -26l-37 -13l-3 2q-2 3 -5.5 5.5t-8.5 8t-9.5 11.5t-10 15.5t-10.5 19.5q-3 8 -5.5 16t-4 15t-2.5 14.5t-1 13v10.5t0.5 8.5t0.5 6.5v2q6 3 17.5 8t49 18.5t77 23.5t98.5 18
t116 8q216 0 303.5 -96t87.5 -302v-686q-22 -14 -79 -14q-23 0 -43.5 3.5t-29.5 6.5l-9 4l-31 131q-80 -165 -322 -165q-148 0 -232.5 87.5t-84.5 254.5zM231 1323l277 225h51l277 -225q-34 -70 -93 -90l-211 141l-208 -139q-60 21 -93 88zM293 322q0 -185 178 -185
q78 0 133 41.5t80 104t25 137.5v72q-141 12 -207 12q-104 0 -156.5 -44t-52.5 -138z" />
    <glyph glyph-name="atilde" unicode="&#xe3;" horiz-adv-x="1054" 
d="M82 322q0 321 393 321q128 0 234 -12v94q0 106 -49 153.5t-162 47.5q-64 0 -132.5 -13t-105.5 -26l-37 -13l-3 2q-2 3 -5.5 5.5t-8.5 8t-9.5 11.5t-10 15.5t-10.5 19.5q-3 7 -5.5 15t-4 15.5t-2.5 14.5t-1 12.5v11t0.5 9t0.5 6.5v2q6 3 17.5 8t49 18.5t77 23.5t98.5 18
t116 8q216 0 303.5 -96t87.5 -302v-686q-22 -14 -79 -14q-23 0 -43.5 3.5t-29.5 6.5l-9 4l-31 131q-80 -165 -322 -165q-148 0 -232.5 87.5t-84.5 254.5zM240 1364q2 3 8.5 12t23.5 24.5t37 29.5t51 24t64 10q40 0 74 -11t53.5 -23.5t46.5 -23.5t55 -11q62 0 97 53
q28 -10 48.5 -36t26.5 -56q-1 -3 -8 -12t-24 -24.5t-37 -29t-51 -23.5t-64 -10q-50 0 -89.5 17.5t-72.5 35t-67 17.5q-18 0 -34.5 -5.5t-27.5 -13.5t-20 -16.5t-13 -13.5l-4 -6q-61 33 -73 92zM293 322q0 -185 178 -185q78 0 133 41.5t80 104t25 137.5v72q-141 12 -207 12
q-104 0 -156.5 -44t-52.5 -138z" />
    <glyph glyph-name="adieresis" unicode="&#xe4;" horiz-adv-x="1054" 
d="M82 322q0 321 393 321q128 0 234 -12v88q0 103 -49 155t-162 52q-64 0 -132.5 -13t-105.5 -26l-37 -13l-3 2q-2 3 -5.5 5.5t-8.5 8t-9.5 11.5t-10 15.5t-10.5 19.5q-3 8 -5.5 16t-4 15t-2.5 14.5t-1 13v10.5t0.5 8.5t0.5 6.5v2q6 3 17.5 8t49 18.5t77 23.5t98.5 18t116 8
q216 0 303.5 -96t87.5 -302v-686q-22 -14 -79 -14q-23 0 -43.5 3.5t-29.5 6.5l-9 4l-31 131q-80 -165 -322 -165q-148 0 -232.5 87.5t-84.5 254.5zM266 1278v166q29 12 92 12q27 0 51 -3t34 -6l10 -3v-166q-34 -12 -95 -12q-28 0 -51 3t-32 6zM293 322q0 -185 178 -185
q78 0 133 41.5t80 104t25 137.5v72q-141 12 -207 12q-104 0 -156.5 -44t-52.5 -138zM612 1278v166q32 12 95 12q27 0 50 -3t33 -6l9 -3v-166q-31 -12 -92 -12q-28 0 -51.5 3t-33.5 6z" />
    <glyph glyph-name="aring" unicode="&#xe5;" horiz-adv-x="1054" 
d="M82 322q0 321 393 321q128 0 234 -12v82q0 108 -48 160.5t-163 52.5q-64 0 -132.5 -13t-105.5 -26l-37 -13l-3 2q-2 3 -5.5 5.5t-8.5 8t-9.5 11.5t-10 15.5t-10.5 19.5q-3 8 -5.5 16t-4 15t-2.5 14.5t-1 13v10.5t0.5 8.5t0.5 6.5v2q6 3 17.5 8t49 18.5t77 23.5t98.5 18
t116 8q216 0 303.5 -96t87.5 -302v-686q-22 -14 -79 -14q-23 0 -43.5 3.5t-29.5 6.5l-9 4l-31 131q-80 -165 -322 -165q-148 0 -232.5 87.5t-84.5 254.5zM289 1419q0 101 71 158t170 57q98 0 171 -57t73 -158q0 -102 -71 -160.5t-175 -58.5t-171.5 58.5t-67.5 160.5z
M293 322q0 -185 178 -185q78 0 133 41.5t80 104t25 137.5v72q-141 12 -207 12q-104 0 -156.5 -44t-52.5 -138zM412 1419q0 -45 30.5 -76.5t85.5 -31.5q58 0 89.5 32t31.5 76q0 46 -31.5 77.5t-89.5 31.5q-55 0 -85.5 -32t-30.5 -77z" />
    <glyph glyph-name="ae" unicode="&#xe6;" horiz-adv-x="1574" 
d="M80 322q0 162 94.5 236.5t288.5 74.5h215v92q0 106 -46 153.5t-153 47.5q-60 0 -124.5 -13t-98.5 -26l-35 -13q-56 53 -59 148q6 3 17 8t46.5 18.5t73.5 23.5t94.5 18t112.5 8q117 0 187.5 -40.5t109.5 -119.5q108 160 295 160q185 0 286 -105t101 -307
q0 -51 -5.5 -100.5t-11.5 -73.5l-6 -23h-590q13 -179 79 -261.5t186 -82.5q62 0 119.5 14t84.5 28l27 14q52 -43 62 -135l-12.5 -9t-38 -21t-63.5 -26t-90.5 -20.5t-117.5 -9.5q-74 0 -136 20t-102.5 53.5t-67 68.5t-40.5 73q-13 -37 -38.5 -71.5t-66.5 -68.5t-106 -54.5
t-143 -20.5q-160 0 -244 87.5t-84 254.5zM289 317q0 -90 40.5 -135t116.5 -45q110 0 171 75.5t61 195.5v81h-189q-107 0 -153.5 -40t-46.5 -132zM874 633h402q6 31 6 80q0 223 -184 223q-203 0 -224 -303z" />
    <glyph glyph-name="ccedilla" unicode="&#xe7;" horiz-adv-x="913" 
d="M102 539q0 275 114 417t337 142q88 0 156.5 -13t92.5 -25l25 -13q-3 -87 -59 -140q-71 31 -180 31q-145 0 -210 -98t-65 -301q0 -202 68 -298t215 -96q50 0 98 8.5t71 17.5l23 9q54 -47 60 -139q-10 -7 -29.5 -16.5t-94 -26.5t-163.5 -18l-14 -93q110 0 161.5 -51
t51.5 -139q0 -99 -65 -150t-183 -51q-54 0 -100.5 12t-65.5 24l-20 13q-3 60 43 86q56 -28 133 -28q129 0 129 100q0 43 -28.5 67.5t-86.5 24.5h-74l-26 29l30 166q-344 65 -344 549z" />
    <glyph glyph-name="egrave" unicode="&#xe8;" horiz-adv-x="1052" 
d="M102 545q0 280 121 416.5t334 136.5q192 0 299 -105.5t107 -306.5q0 -57 -5.5 -110t-11.5 -77l-6 -24h-627q12 -176 81.5 -248.5t203.5 -72.5q64 0 124.5 15t89.5 29l28 15q62 -55 65 -147q-5 -3 -14 -9t-41.5 -21t-68.5 -26t-95 -20.5t-121 -9.5q-463 0 -463 565z
M311 1513q22 36 75.5 59t102.5 17l195 -289q-35 -50 -117 -63zM313 621h439q6 48 6 92q0 100 -47 161.5t-154 61.5q-222 0 -244 -315z" />
    <glyph glyph-name="eacute" unicode="&#xe9;" horiz-adv-x="1052" 
d="M102 545q0 280 121 416.5t334 136.5q192 0 299 -105.5t107 -306.5q0 -57 -5.5 -110t-11.5 -77l-6 -24h-627q12 -176 81.5 -248.5t203.5 -72.5q64 0 124.5 15t89.5 29l28 15q62 -55 65 -147q-5 -3 -14 -9t-41.5 -21t-68.5 -26t-95 -20.5t-121 -9.5q-463 0 -463 565z
M313 621h439q6 48 6 92q0 100 -47 161.5t-154 61.5q-222 0 -244 -315zM379 1300l194 289q49 6 102 -17t77 -59l-256 -276q-82 13 -117 63z" />
    <glyph glyph-name="ecircumflex" unicode="&#xea;" horiz-adv-x="1052" 
d="M102 545q0 280 121 416.5t334 136.5q192 0 299 -105.5t107 -306.5q0 -57 -5.5 -110t-11.5 -77l-6 -24h-627q12 -176 81.5 -248.5t203.5 -72.5q64 0 124.5 15t89.5 29l28 15q62 -55 65 -147q-5 -3 -14 -9t-41.5 -21t-68.5 -26t-95 -20.5t-121 -9.5q-463 0 -463 565z
M248 1323l276 225h51l277 -225q-31 -70 -92 -90l-209 141l-209 -139q-61 20 -94 88zM313 621h439q6 48 6 92q0 100 -47 161.5t-154 61.5q-222 0 -244 -315z" />
    <glyph glyph-name="edieresis" unicode="&#xeb;" horiz-adv-x="1052" 
d="M102 545q0 280 121 416.5t334 136.5q192 0 299 -105.5t107 -306.5q0 -57 -5.5 -110t-11.5 -77l-6 -24h-627q12 -176 81.5 -248.5t203.5 -72.5q64 0 124.5 15t89.5 29l28 15q62 -55 65 -147q-5 -3 -14 -9t-41.5 -21t-68.5 -26t-95 -20.5t-121 -9.5q-463 0 -463 565z
M285 1268v168q29 12 92 12q27 0 50.5 -3t33.5 -6l10 -3v-168q-33 -13 -94 -13q-28 0 -51 3.5t-32 6.5zM313 621h439q6 48 6 92q0 100 -47 161.5t-154 61.5q-222 0 -244 -315zM631 1268v168q31 12 94 12q26 0 49 -3t33 -6l10 -3v-168q-33 -13 -92 -13q-28 0 -51.5 3.5
t-33.5 6.5z" />
    <glyph glyph-name="igrave" unicode="&#xec;" horiz-adv-x="512" 
d="M12 1518q22 35 75.5 58t102.5 17l195 -288q-36 -51 -117 -64zM154 14v1049q30 14 102 14q30 0 55.5 -3.5t36.5 -7.5l10 -3v-1049q-34 -14 -102 -14q-32 0 -57.5 3.5t-34.5 6.5z" />
    <glyph glyph-name="iacute" unicode="&#xed;" horiz-adv-x="512" 
d="M111 1300l194 289q49 6 101.5 -17t76.5 -59l-256 -276q-80 13 -116 63zM154 14v1049q30 14 102 14q30 0 55.5 -3.5t36.5 -7.5l10 -3v-1049q-34 -14 -102 -14q-32 0 -57.5 3.5t-34.5 6.5z" />
    <glyph glyph-name="icircumflex" unicode="&#xee;" horiz-adv-x="512" 
d="M-43 1323l274 225h52l278 -225q-34 -71 -94 -90l-209 141l-209 -139q-58 19 -92 88zM154 14v1049q30 14 102 14q30 0 55.5 -3.5t36.5 -7.5l10 -3v-1049q-34 -14 -102 -14q-32 0 -57.5 3.5t-34.5 6.5z" />
    <glyph glyph-name="idieresis" unicode="&#xef;" horiz-adv-x="512" 
d="M-16 1272v168q31 12 94 12q26 0 49 -3t33 -6l10 -3v-168q-33 -10 -92 -10q-28 0 -51.5 2.5t-32.5 5.5zM154 14v1049q30 14 102 14q30 0 55.5 -3.5t36.5 -7.5l10 -3v-1049q-34 -14 -102 -14q-32 0 -57.5 3.5t-34.5 6.5zM332 1272v168q29 12 92 12q27 0 50.5 -3t33.5 -6
l10 -3v-168q-33 -10 -94 -10q-28 0 -51 2.5t-32 5.5z" />
    <glyph glyph-name="eth" unicode="&#xf0;" horiz-adv-x="1136" 
d="M102 516q0 537 437 537q166 0 260 -101q-53 186 -193 301l-235 -149q-60 51 -72 110l182 115q-99 54 -211 76q-7 87 43 131q169 -26 318 -113l164 105q52 -39 69 -109l-121 -76q137 -122 212 -302.5t75 -411.5q0 -149 -21 -260.5t-59 -185t-97.5 -119.5t-130.5 -65
t-163 -19q-221 0 -339 127t-118 409zM313 516q0 -110 17 -185.5t51 -117t77 -59t101 -17.5q46 0 82.5 10.5t68 36.5t52.5 68.5t33 109t12 154.5q0 112 -17.5 188t-52.5 117t-78.5 57.5t-103.5 16.5q-59 0 -101.5 -17.5t-75.5 -59t-49 -116.5t-16 -186z" />
    <glyph glyph-name="ntilde" unicode="&#xf1;" horiz-adv-x="1124" 
d="M150 14v1049q30 14 102 14q29 0 54.5 -3.5t36.5 -7.5l11 -3v-94q114 129 310 129q151 0 234 -84.5t83 -225.5v-774q-34 -14 -102 -14q-31 0 -57 3.5t-36 6.5l-10 4v738q0 180 -190 180q-68 0 -130 -35t-102 -96v-787q-36 -14 -102 -14q-32 0 -57.5 3.5t-34.5 6.5z
M260 1366q2 4 7 11t22.5 24t37 30t52 24t67.5 11q50 0 89.5 -17t73 -33.5t67.5 -16.5q28 0 52 14.5t34 28.5l10 14q29 -12 50.5 -38t27.5 -56l-8 -11t-22.5 -24t-37.5 -30t-52.5 -24t-67.5 -11q-50 0 -89.5 17t-73 33.5t-67.5 16.5q-28 0 -52 -14.5t-34 -28.5l-10 -14
q-68 36 -76 94z" />
    <glyph glyph-name="ograve" unicode="&#xf2;" horiz-adv-x="1114" 
d="M102 539q0 294 117.5 426.5t337.5 132.5q222 0 338.5 -132.5t116.5 -426.5t-117.5 -426.5t-337.5 -132.5t-337.5 132.5t-117.5 426.5zM266 1513q24 36 77 59t103 17l193 -289q-35 -50 -117 -63zM311 539q0 -116 17 -195.5t50.5 -124t76.5 -63.5t102 -19t102 19t76 63.5
t49.5 124t16.5 195.5t-16.5 195.5t-49.5 123.5t-76 63t-102 19q-47 0 -83.5 -11.5t-67.5 -39t-51.5 -73t-32 -115t-11.5 -162.5z" />
    <glyph glyph-name="oacute" unicode="&#xf3;" horiz-adv-x="1114" 
d="M102 539q0 294 117.5 426.5t337.5 132.5q222 0 338.5 -132.5t116.5 -426.5t-117.5 -426.5t-337.5 -132.5t-337.5 132.5t-117.5 426.5zM311 539q0 -116 17 -195.5t50.5 -124t76.5 -63.5t102 -19t102 19t76 63.5t49.5 124t16.5 195.5t-16.5 195.5t-49.5 123.5t-76 63
t-102 19q-47 0 -83.5 -11.5t-67.5 -39t-51.5 -73t-32 -115t-11.5 -162.5zM375 1300l194 289q49 6 102 -17t77 -59l-256 -276q-82 13 -117 63z" />
    <glyph glyph-name="ocircumflex" unicode="&#xf4;" horiz-adv-x="1114" 
d="M102 539q0 294 117.5 426.5t337.5 132.5q222 0 338.5 -132.5t116.5 -426.5t-117.5 -426.5t-337.5 -132.5t-337.5 132.5t-117.5 426.5zM246 1323l276 225h51l277 -225q-34 -70 -92 -90l-211 141l-209 -139q-59 20 -92 88zM311 539q0 -116 17 -195.5t50.5 -124t76.5 -63.5
t102 -19t102 19t76 63.5t49.5 124t16.5 195.5t-16.5 195.5t-49.5 123.5t-76 63t-102 19q-47 0 -83.5 -11.5t-67.5 -39t-51.5 -73t-32 -115t-11.5 -162.5z" />
    <glyph glyph-name="otilde" unicode="&#xf5;" horiz-adv-x="1114" 
d="M102 539q0 294 117.5 426.5t337.5 132.5q222 0 338.5 -132.5t116.5 -426.5t-117.5 -426.5t-337.5 -132.5t-337.5 132.5t-117.5 426.5zM252 1360q2 4 7 11t22.5 24t37 30t52 24t67.5 11q50 0 89.5 -17t73 -33.5t67.5 -16.5q28 0 52 14.5t34 28.5l10 14q29 -12 50 -38.5
t26 -55.5q-3 -4 -7.5 -11t-22 -24.5t-37.5 -30.5t-52.5 -24t-67.5 -11q-50 0 -89.5 17t-72.5 34t-67 17q-28 0 -52 -14.5t-34 -28.5l-10 -14q-67 34 -76 94zM311 539q0 -116 17 -195.5t50.5 -124t76.5 -63.5t102 -19t102 19t76 63.5t49.5 124t16.5 195.5t-16.5 195.5
t-49.5 123.5t-76 63t-102 19q-47 0 -83.5 -11.5t-67.5 -39t-51.5 -73t-32 -115t-11.5 -162.5z" />
    <glyph glyph-name="odieresis" unicode="&#xf6;" horiz-adv-x="1114" 
d="M102 539q0 294 117.5 426.5t337.5 132.5q222 0 338.5 -132.5t116.5 -426.5t-117.5 -426.5t-337.5 -132.5t-337.5 132.5t-117.5 426.5zM281 1276v168q31 12 94 12q26 0 49 -3t33 -6l10 -3v-168q-33 -10 -92 -10q-28 0 -51.5 2.5t-33.5 5.5zM311 539q0 -116 17 -195.5
t50.5 -124t76.5 -63.5t102 -19t102 19t76 63.5t49.5 124t16.5 195.5t-16.5 195.5t-49.5 123.5t-76 63t-102 19q-47 0 -83.5 -11.5t-67.5 -39t-51.5 -73t-32 -115t-11.5 -162.5zM629 1276v168q29 12 92 12q27 0 50.5 -3t33.5 -6l10 -3v-168q-33 -10 -94 -10q-28 0 -51 2.5
t-32 5.5z" />
    <glyph glyph-name="divide" unicode="&#xf7;" horiz-adv-x="1093" 
d="M117 594q0 21 3 40t6 28l3 8h838q12 -29 12 -76q0 -21 -3 -40t-6 -28l-3 -8h-838q-12 29 -12 76zM442 166v192q33 15 107 15q31 0 57.5 -3.5t37.5 -7.5l11 -4v-192q-36 -14 -106 -14q-33 0 -59.5 3.5t-37.5 6.5zM442 829v193q33 14 107 14q31 0 57.5 -3.5t37.5 -6.5
l11 -4v-193q-36 -14 -106 -14q-33 0 -59.5 3.5t-37.5 7.5z" />
    <glyph glyph-name="oslash" unicode="&#xf8;" horiz-adv-x="1116" 
d="M102 539q0 294 117.5 426.5t339.5 132.5q139 0 227 -49l76 125q64 -3 119 -58l-88 -147q121 -137 121 -430q0 -294 -117.5 -426.5t-337.5 -132.5q-131 0 -227 47l-74 -125q-74 3 -121 57l88 147q-123 138 -123 433zM311 539q0 -147 39 -230l348 590q-55 41 -139 41
q-60 0 -103.5 -19t-77 -63t-50.5 -123.5t-17 -195.5zM422 176q50 -39 137 -39q59 0 102 19t76 63.5t49.5 124t16.5 195.5q0 140 -33 227z" />
    <glyph glyph-name="ugrave" unicode="&#xf9;" horiz-adv-x="1122" 
d="M141 289v774q35 14 103 14q31 0 56.5 -3.5t35.5 -7.5l10 -3v-737q0 -181 191 -181q68 0 129 34.5t102 96.5v787q36 14 102 14q32 0 57.5 -3.5t35.5 -7.5l10 -3v-1049q-31 -14 -103 -14q-29 0 -54.5 3.5t-36.5 6.5l-11 4v95q-114 -129 -309 -129q-151 0 -234.5 84
t-83.5 225zM311 1513q22 36 75.5 59t102.5 17l195 -289q-35 -50 -117 -63z" />
    <glyph glyph-name="uacute" unicode="&#xfa;" horiz-adv-x="1122" 
d="M141 289v774q35 14 103 14q31 0 56.5 -3.5t35.5 -7.5l10 -3v-737q0 -181 191 -181q68 0 129 34.5t102 96.5v787q36 14 102 14q32 0 57.5 -3.5t35.5 -7.5l10 -3v-1049q-31 -14 -103 -14q-29 0 -54.5 3.5t-36.5 6.5l-11 4v95q-114 -129 -309 -129q-151 0 -234.5 84
t-83.5 225zM395 1300l195 289q49 6 101.5 -17t76.5 -59l-256 -276q-82 13 -117 63z" />
    <glyph glyph-name="ucircumflex" unicode="&#xfb;" horiz-adv-x="1122" 
d="M141 289v774q35 14 103 14q31 0 56.5 -3.5t35.5 -7.5l10 -3v-737q0 -181 191 -181q68 0 129 34.5t102 96.5v787q36 14 102 14q32 0 57.5 -3.5t35.5 -7.5l10 -3v-1049q-31 -14 -103 -14q-29 0 -54.5 3.5t-36.5 6.5l-11 4v95q-114 -129 -309 -129q-151 0 -234.5 84
t-83.5 225zM260 1323l277 225h51l276 -225q-34 -70 -92 -90l-209 141l-209 -139q-61 20 -94 88z" />
    <glyph glyph-name="udieresis" unicode="&#xfc;" horiz-adv-x="1122" 
d="M141 289v774q35 14 103 14q31 0 56.5 -3.5t35.5 -7.5l10 -3v-737q0 -181 191 -181q68 0 129 34.5t102 96.5v787q36 14 102 14q32 0 57.5 -3.5t35.5 -7.5l10 -3v-1049q-31 -14 -103 -14q-29 0 -54.5 3.5t-36.5 6.5l-11 4v95q-114 -129 -309 -129q-151 0 -234.5 84
t-83.5 225zM293 1278v168q29 12 92 12q27 0 50.5 -3t33.5 -6l10 -3v-168q-33 -12 -94 -12q-28 0 -51 3t-32 6zM641 1278v168q29 12 92 12q27 0 50.5 -3t33.5 -6l10 -3v-168q-33 -12 -94 -12q-28 0 -51 3t-32 6z" />
    <glyph glyph-name="yacute" unicode="&#xfd;" horiz-adv-x="1077" 
d="M41 1063q38 14 106 14q31 0 58 -3.5t38 -7.5l11 -3l233 -623q23 -63 41 -122.5t24 -87.5l7 -29h8q21 96 66 237l203 625q32 14 100 14q26 0 50 -3.5t35 -7.5l11 -3l-395 -1221q-24 -74 -45.5 -124t-52 -97t-66.5 -74t-87 -43t-116 -16q-30 0 -58 5t-41 10l-13 5l-2 4
q-1 5 -3.5 12t-4.5 16t-3.5 21t-1.5 23q0 20 4 40t7.5 30t5.5 12q45 -8 92 -8q38 0 62.5 7t49.5 29t45.5 65.5t43.5 115.5l43 125q-44 4 -66 14zM391 1300l195 289q49 6 101.5 -17t76.5 -59l-256 -276q-82 13 -117 63z" />
    <glyph glyph-name="thorn" unicode="&#xfe;" horiz-adv-x="1140" 
d="M150 -461v1983q32 14 100 14q31 0 57 -3.5t37 -6.5l10 -4v-557q90 133 295 133q90 0 158.5 -29t120.5 -93t79 -174t27 -263t-27 -263t-79 -174t-120.5 -93t-158.5 -29q-205 0 -295 133v-574q-34 -12 -104 -12q-30 0 -55 3t-35 6zM354 410q0 -111 60.5 -187t163.5 -76
q86 0 137.5 34t79.5 121t28 237q0 221 -58 306t-187 85q-103 0 -163.5 -74.5t-60.5 -183.5v-262z" />
    <glyph glyph-name="ydieresis" unicode="&#xff;" horiz-adv-x="1077" 
d="M41 1063q38 14 106 14q31 0 58 -3.5t38 -7.5l11 -3l233 -623q23 -63 41 -122.5t24 -87.5l7 -29h8q21 96 66 237l203 625q32 14 100 14q26 0 50 -3.5t35 -7.5l11 -3l-395 -1221q-24 -74 -45.5 -124t-52 -97t-66.5 -74t-87 -43t-116 -16q-30 0 -58 5t-41 10l-13 5l-2 4
q-1 5 -3.5 12t-4.5 16t-3.5 21t-1.5 23q0 20 4 40t7.5 30t5.5 12q45 -8 92 -8q38 0 62.5 7t49.5 29t45.5 65.5t43.5 115.5l43 125q-44 4 -66 14zM287 1280v166q28 12 94 12q26 0 49 -3t33 -6l10 -3v-166q-33 -12 -92 -12q-29 0 -52.5 3t-32.5 6zM635 1280v166q29 12 92 12
q27 0 50.5 -3t33.5 -6l10 -3v-166q-33 -12 -94 -12q-28 0 -51 3t-32 6z" />
    <glyph glyph-name="dotlessi" unicode="&#x131;" horiz-adv-x="512" 
d="M154 14v1049q30 14 102 14q30 0 55.5 -3.5t36.5 -7.5l10 -3v-1049q-34 -14 -102 -14q-32 0 -57.5 3.5t-34.5 6.5z" />
    <glyph glyph-name="Ldot" unicode="&#x13f;" horiz-adv-x="1081" 
d="M182 0v1460q35 15 103 15q32 0 58.5 -3.5t36.5 -7.5l11 -4v-1280h613q16 -40 16 -90q0 -47 -16 -90h-822zM702 602v166q29 14 95 14q27 0 50.5 -3.5t33.5 -6.5l10 -4v-166q-33 -14 -94 -14q-29 0 -53 3.5t-33 6.5z" />
    <glyph glyph-name="ldot" unicode="&#x140;" horiz-adv-x="745" 
d="M156 14v1508q30 14 102 14q30 0 55.5 -3.5t36.5 -6.5l10 -4v-1508q-34 -14 -102 -14q-32 0 -57.5 3.5t-34.5 6.5zM547 602v166q28 14 94 14q26 0 49 -3.5t33 -6.5l10 -4v-166q-33 -14 -92 -14q-29 0 -52.5 3.5t-32.5 6.5z" />
    <glyph glyph-name="OE" unicode="&#x152;" horiz-adv-x="1787" 
d="M119 737q0 387 154 572.5t438 185.5q93 0 178 -20h774q16 -43 16 -84q0 -43 -16 -86h-549v-476h447q16 -40 16 -81q0 -43 -16 -86h-447v-492h569q17 -49 17 -86q0 -38 -17 -84h-796q-85 -20 -176 -20q-284 0 -438 186.5t-154 570.5zM338 737q0 -133 17.5 -234t49 -167
t79 -107t102.5 -58t125 -17q120 0 196 36v1096q-90 35 -196 35q-88 0 -153 -28t-116.5 -93t-77.5 -181t-26 -282z" />
    <glyph glyph-name="oe" unicode="&#x153;" horiz-adv-x="1669" 
d="M102 539q0 293 117 426t336 133q226 0 315 -180q98 180 310 180q189 0 294 -105.5t105 -306.5q0 -57 -5.5 -110t-11.5 -77l-6 -24h-595q13 -180 74 -255t186 -75q63 0 122.5 14t88.5 28l28 14q55 -43 62 -135q-4 -3 -13 -9t-40 -21t-66.5 -26t-93.5 -20.5t-121 -9.5
q-110 0 -191.5 44t-126.5 130q-103 -174 -315 -174q-219 0 -336 133t-117 426zM313 539q0 -115 16.5 -195t49.5 -124.5t75.5 -63.5t100.5 -19q77 0 123.5 34.5t72 124t25.5 245.5q0 155 -25.5 243.5t-72 122t-123.5 33.5q-58 0 -100.5 -19t-75.5 -63t-49.5 -124t-16.5 -195z
M963 621h405q6 48 6 92q0 223 -194 223q-98 0 -151.5 -74.5t-65.5 -240.5z" />
    <glyph glyph-name="Ydieresis" unicode="&#x178;" horiz-adv-x="1298" 
d="M39 1460q45 15 127 15q34 0 63.5 -3.5t42.5 -7.5l13 -4l374 -633l385 633q37 15 109 15q31 0 60.5 -3.5t42.5 -7.5l14 -4l-518 -844v-602q-35 -14 -103 -14q-33 0 -59.5 3.5t-36.5 6.5l-10 4v598zM393 1573v168q31 12 94 12q26 0 49.5 -3t33.5 -6l10 -3v-168
q-34 -12 -93 -12q-28 0 -51.5 3t-33.5 6zM741 1573v168q29 12 95 12q26 0 49 -3t33 -6l10 -3v-168q-33 -12 -92 -12q-29 0 -53 3t-33 6z" />
    <glyph glyph-name="florin" unicode="&#x192;" horiz-adv-x="946" 
d="M-70 -244q6 84 52 135q63 -22 149 -22q68 0 103.5 35t44.5 119l75 792h-166q-12 29 -12 74q0 20 3 38.5t6 26.5l3 9h181l14 135q14 158 89.5 237.5t238.5 79.5q57 0 110.5 -10.5t78.5 -21.5l24 -11q-3 -78 -52 -133q-63 23 -149 23q-68 0 -103 -36t-42 -120l-15 -143h176
q13 -29 13 -74q0 -20 -3 -38.5t-7 -26.5l-3 -9h-190l-76 -784q-16 -158 -91.5 -238t-238.5 -80q-56 0 -109.5 10.5t-78.5 21.5z" />
    <glyph glyph-name="circumflex" unicode="&#x2c6;" horiz-adv-x="811" 
d="M96 1241l281 232h53l283 -232q-35 -73 -95 -92l-215 145l-213 -143q-61 20 -94 90z" />
    <glyph glyph-name="caron" unicode="&#x2c7;" horiz-adv-x="827" 
d="M96 1358q34 72 94 92l216 -145l212 143q59 -17 95 -90l-281 -232h-53z" />
    <glyph glyph-name="breve" unicode="&#x2d8;" horiz-adv-x="663" 
d="M20 1368q9 32 33.5 59t55.5 37q9 -7 26.5 -18t74.5 -29t118 -18t115.5 16.5t78.5 32.5l25 16q31 -9 55 -35.5t33 -60.5q-4 -5 -12 -14t-37 -31t-61.5 -39t-86 -31t-110.5 -14t-110 13.5t-87.5 32.5t-60.5 37.5t-38 31.5z" />
    <glyph glyph-name="dotaccent" unicode="&#x2d9;" horiz-adv-x="360" 
d="M80 1249v174q30 13 98 13q28 0 52.5 -3t35.5 -7l10 -3v-174q-35 -12 -98 -12q-30 0 -54.5 3t-33.5 6z" />
    <glyph glyph-name="ring" unicode="&#x2da;" horiz-adv-x="704" 
d="M104 1260q0 105 73 165t173 60t174 -59.5t74 -165.5t-72 -168t-178 -62t-175 61.5t-69 168.5zM221 1260q0 -50 33 -86.5t94 -36.5q62 0 96.5 37t34.5 86t-34.5 84.5t-96.5 35.5q-61 0 -94 -36t-33 -84z" />
    <glyph glyph-name="ogonek" unicode="&#x2db;" horiz-adv-x="579" 
d="M37 -264q0 106 87.5 172t244.5 72l16 -41q-102 -29 -157.5 -72t-55.5 -113q0 -51 31 -77.5t78 -26.5q16 0 32.5 3t24.5 6l8 3q34 -27 31 -80q-59 -37 -137 -37q-89 0 -146 51t-57 140z" />
    <glyph glyph-name="tilde" unicode="&#x2dc;" horiz-adv-x="669" 
d="M47 1370l8 11t22.5 24t37 30t52 24t66.5 11q51 0 90.5 -17t72.5 -33.5t67 -16.5q28 0 52.5 13.5t34.5 27.5l11 14q29 -12 49.5 -37.5t26.5 -56.5l-8 -10.5t-22.5 -23.5t-37 -30t-52 -23.5t-66.5 -10.5q-51 0 -90.5 17t-72.5 33.5t-67 16.5q-28 0 -52.5 -14.5t-34.5 -28.5
l-11 -14q-64 34 -76 94z" />
    <glyph glyph-name="hungarumlaut" unicode="&#x2dd;" horiz-adv-x="790" 
d="M27 1368l190 289q50 6 103.5 -17t78.5 -59l-256 -276q-80 13 -116 63zM362 1368l191 289q51 6 104.5 -17t77.5 -59l-256 -276q-82 13 -117 63z" />
    <glyph glyph-name="pi" unicode="&#x3c0;" horiz-adv-x="1261" 
d="M59 956q0 51 17 86q13 4 39.5 10t122 15.5t208.5 9.5h738q16 -40 16 -84t-16 -84h-144v-424q0 -137 15 -247t30 -152l15 -41q-42 -45 -137 -45q-56 0 -76 10q-2 5 -5.5 14.5t-12.5 48t-15.5 87t-12 135.5t-5.5 188v426h-418v-895q-35 -14 -105 -14q-30 0 -55 3.5t-35 6.5
l-10 4v883q-40 -4 -74.5 -10t-48.5 -9l-14 -4q-17 42 -17 82z" />
    <glyph glyph-name="afii10023" unicode="&#x401;" horiz-adv-x="1136" 
d="M182 0v1475h830q16 -40 16 -80q0 -54 -16 -90h-623v-476h520q17 -43 17 -81q0 -48 -17 -86h-520v-492h643q17 -46 17 -82q0 -47 -17 -88h-850zM348 1626v166q31 12 94 12q27 0 50.5 -3t33.5 -6l9 -3v-166q-32 -12 -93 -12q-28 0 -51.5 3t-32.5 6zM696 1626v166
q32 12 95 12q26 0 49 -3t33 -6l10 -3v-166q-33 -12 -92 -12q-28 0 -51.5 3t-33.5 6z" />
    <glyph glyph-name="afii10017" unicode="&#x410;" horiz-adv-x="1339" 
d="M33 14l514 1446q51 15 123 15q35 0 65.5 -3.5t44.5 -7.5l13 -4l514 -1446q-37 -14 -113 -14q-31 0 -56.5 3.5t-35.5 6.5l-10 4l-127 361h-607l-129 -361q-34 -14 -100 -14q-28 0 -52 3.5t-34 6.5zM418 545h487l-186 518q-16 47 -29.5 93t-18.5 68l-5 23h-7
q-18 -82 -53 -184z" />
    <glyph glyph-name="afii10018" unicode="&#x411;" horiz-adv-x="1267" 
d="M182 0v1475h848q17 -34 17 -91q0 -24 -4.5 -46.5t-8.5 -33.5l-4 -10h-639v-426h354q199 0 318 -118.5t119 -315.5q0 -196 -119 -315t-318 -119h-563zM391 162h316q128 0 194 72t66 200q0 129 -66 201t-194 72h-316v-545z" />
    <glyph glyph-name="afii10019" unicode="&#x412;" horiz-adv-x="1286" 
d="M182 0v1475h549q192 0 297 -112.5t105 -293.5q0 -115 -48 -191.5t-116 -119.5q207 -106 207 -342q0 -189 -115.5 -302.5t-321.5 -113.5h-557zM391 162h309q261 0 261 254q0 129 -64 191.5t-199 62.5h-307v-508zM391 825h295q119 0 176.5 66t57.5 178q0 115 -57 179.5
t-179 64.5h-293v-488z" />
    <glyph glyph-name="afii10020" unicode="&#x413;" horiz-adv-x="1038" 
d="M182 14v1461h795q16 -32 16 -89q0 -23 -4 -46t-8 -34l-4 -12h-586v-1280q-36 -14 -106 -14q-30 0 -56 3.5t-37 6.5z" />
    <glyph glyph-name="afii10021" unicode="&#x414;" horiz-adv-x="1429" 
d="M43 170h113q130 115 166 582l55 723h807v-1305h159v-453q-54 -16 -92 -16q-53 0 -96 16v283h-926v-283q-47 -14 -94 -14q-48 0 -92 14v453zM393 170h584v1147h-416l-41 -578q-27 -386 -127 -569z" />
    <glyph glyph-name="afii10022" unicode="&#x415;" 
d="M182 0v1475h832q16 -50 16 -80q0 -47 -16 -90h-623v-471h520q17 -57 17 -82q0 -39 -17 -88h-520v-494h643q17 -57 17 -82q0 -39 -17 -88h-852z" />
    <glyph glyph-name="afii10024" unicode="&#x416;" horiz-adv-x="1892" 
d="M23 14l501 774l-438 672q72 15 111 15q37 0 104 -15l399 -610h144v610q34 15 104 15q30 0 56 -3.5t36 -7.5l11 -4v-610h141l399 610q68 15 107 15q36 0 108 -15l-438 -669l502 -777q-41 -14 -123 -14q-34 0 -64 3.5t-43 6.5l-14 4l-432 668h-143v-668q-31 -14 -105 -14
q-29 0 -54.5 3.5t-36.5 6.5l-11 4v668h-148l-432 -668q-43 -14 -119 -14q-36 0 -66.5 3.5t-42.5 6.5z" />
    <glyph glyph-name="afii10025" unicode="&#x417;" horiz-adv-x="1132" 
d="M74 47q-3 101 59 160q149 -45 299 -45q182 0 276.5 63t94.5 187q0 74 -24.5 125t-71.5 78.5t-105 39t-137 11.5h-139q-15 40 -15 87.5t15 84.5h139q69 0 121 11.5t93.5 38t63 74.5t21.5 117q0 121 -81 180.5t-220 59.5q-77 0 -153 -11.5t-113 -23.5l-37 -12
q-69 52 -66 151q17 8 48.5 20t132.5 32t206 20q241 0 367.5 -102t126.5 -291q0 -132 -52 -217t-132 -123v-6q97 -39 162 -129.5t65 -237.5q0 -191 -135.5 -300t-421.5 -109q-72 0 -138.5 7t-110 16.5t-76 19.5t-47.5 17z" />
    <glyph glyph-name="afii10026" unicode="&#x418;" horiz-adv-x="1415" 
d="M182 14v1446q35 15 103 15q32 0 58.5 -3.5t36.5 -7.5l11 -4v-676q0 -136 -3.5 -265.5t-7.5 -190.5l-3 -62h6q34 117 199 439l411 755q37 15 121 15q37 0 67 -3.5t41 -7.5l11 -4v-1446q-33 -14 -103 -14q-34 0 -60 3.5t-35 6.5l-9 4v672q0 154 4 278.5t8 171.5l4 48h-6
q-36 -108 -190 -408l-414 -762l-6 -2q-6 -1 -16.5 -3t-24.5 -4t-35.5 -3.5t-44.5 -1.5q-40 0 -70.5 3.5t-41.5 6.5z" />
    <glyph glyph-name="afii10027" unicode="&#x419;" horiz-adv-x="1415" 
d="M182 14v1446q35 15 103 15q32 0 58.5 -3.5t36.5 -7.5l11 -4v-676q0 -136 -3.5 -265.5t-7.5 -190.5l-3 -62h6q34 117 199 439l411 755q37 15 121 15q37 0 67 -3.5t41 -7.5l11 -4v-1446q-33 -14 -103 -14q-34 0 -60 3.5t-35 6.5l-9 4v672q0 154 4 278.5t8 171.5l4 48h-6
q-36 -108 -190 -408l-414 -762l-6 -2q-6 -1 -16.5 -3t-24.5 -4t-35.5 -3.5t-44.5 -1.5q-40 0 -70.5 3.5t-41.5 6.5zM381 1782q12 36 38.5 66t57.5 40l11 -8t31.5 -17.5t50.5 -22t66 -17.5t81 -8q65 0 125.5 18.5t87.5 36.5l28 18q33 -10 58.5 -39.5t36.5 -66.5
q-5 -6 -14 -15t-40.5 -32.5t-67.5 -41.5t-94 -33t-120 -15q-61 0 -118.5 14t-95 34.5t-66.5 40.5t-43 34z" />
    <glyph glyph-name="afii10028" unicode="&#x41a;" horiz-adv-x="1263" 
d="M182 14v1446q37 15 107 15q30 0 55.5 -3.5t35.5 -7.5l11 -4v-610h150l422 610q67 15 104 15q35 0 113 -15l-465 -672l526 -774q-43 -14 -123 -14q-34 0 -64 3.5t-44 6.5l-13 4l-456 668h-150v-668q-30 -14 -104 -14q-29 0 -55.5 3.5t-37.5 6.5z" />
    <glyph glyph-name="afii10029" unicode="&#x41b;" horiz-adv-x="1378" 
d="M39 80q0 42 14 80q36 -4 68 0q187 21 235 655l52 660h788v-1461q-34 -14 -102 -14q-12 0 -23.5 0.5t-20.5 1.5l-17.5 2t-14.5 2t-11 2t-8.5 2t-6 2t-2.5 2h-1v1299h-397l-39 -502q-11 -154 -32.5 -278.5t-47 -208.5t-58.5 -147t-64.5 -97.5t-68.5 -56t-66 -27.5t-62 -6
q-57 0 -101 14q-14 40 -14 76z" />
    <glyph glyph-name="afii10030" unicode="&#x41c;" horiz-adv-x="1710" 
d="M182 14v1446q49 15 125 15q28 0 59.5 -3.5t48.5 -7.5l17 -4l270 -512q118 -238 142 -317h8q28 86 76 182l334 647q73 15 133 15q36 0 70 -3.5t49 -7.5l16 -4v-1446q-35 -14 -103 -14q-29 0 -55 3.5t-38 6.5l-11 4v656q0 30 -0.5 118t0 130t1.5 107.5t3.5 111t7.5 80.5
h-10q-23 -86 -182 -412l-240 -451q-26 -10 -63 -10q-17 0 -31.5 2.5t-20.5 5.5l-6 2l-235 443q-160 319 -187 420h-8q21 -107 21 -517v-686q-33 -14 -99 -14q-25 0 -48 3.5t-34 6.5z" />
    <glyph glyph-name="afii10031" unicode="&#x41d;" horiz-adv-x="1396" 
d="M182 14v1446q35 15 103 15q31 0 57.5 -3.5t37.5 -7.5l11 -4v-614h615v614q36 15 104 15q30 0 56 -3.5t37 -7.5l11 -4v-1446q-34 -14 -102 -14q-35 0 -61.5 3.5t-35.5 6.5l-9 4v652h-615v-652q-36 -14 -104 -14q-33 0 -59 3.5t-36 6.5z" />
    <glyph glyph-name="afii10032" unicode="&#x41e;" horiz-adv-x="1392" 
d="M119 737q0 384 151.5 571t425.5 187q275 0 426.5 -186t151.5 -572t-150.5 -571.5t-427.5 -185.5t-427 185t-150 572zM338 737q0 -134 16.5 -234.5t46.5 -166.5t75.5 -107t98.5 -58t121 -17t121.5 17t99 58t75.5 107t46.5 166.5t16.5 234.5q0 166 -24.5 281.5t-73.5 181
t-112 93.5t-149 28q-85 0 -148 -28t-111.5 -93.5t-73.5 -181t-25 -281.5z" />
    <glyph glyph-name="afii10033" unicode="&#x41f;" horiz-adv-x="1370" 
d="M182 14v1461h1006v-1461q-35 -14 -103 -14q-34 0 -60.5 3.5t-36.5 6.5l-9 4v1280h-590v-1280q-36 -14 -102 -14q-34 0 -60 3.5t-35 6.5z" />
    <glyph glyph-name="afii10034" unicode="&#x420;" horiz-adv-x="1241" 
d="M182 14v1461h535q201 0 320.5 -124t119.5 -327q0 -201 -119.5 -325t-320.5 -124h-326v-561q-34 -14 -102 -14q-34 0 -60.5 3.5t-36.5 6.5zM391 750h299q121 0 185.5 72t64.5 202q0 131 -64.5 203.5t-185.5 72.5h-299v-550z" />
    <glyph glyph-name="afii10035" unicode="&#x421;" horiz-adv-x="1150" 
d="M119 737q0 373 151 565.5t445 192.5q101 0 188.5 -17.5t124.5 -35.5l37 -17q5 -82 -61 -155q-13 5 -37 13t-94 21t-134 13q-75 0 -134 -16.5t-110.5 -57t-85.5 -106t-53.5 -167t-19.5 -235.5t19.5 -234.5t53.5 -164.5t86 -103.5t110.5 -55t133.5 -15.5q72 0 143.5 12
t106.5 24l35 11q60 -57 63 -160q-5 -3 -15.5 -7.5t-46 -16.5t-75.5 -21t-104 -16.5t-131 -7.5q-294 0 -445 191.5t-151 565.5z" />
    <glyph glyph-name="afii10036" unicode="&#x422;" horiz-adv-x="1120" 
d="M53 1384q0 23 4.5 45.5t8.5 34.5l4 11h981q16 -38 16 -89q0 -24 -4 -47t-8 -34l-4 -11h-381v-1280q-37 -14 -105 -14q-33 0 -59 3.5t-36 6.5l-9 4v1280h-391q-17 35 -17 90z" />
    <glyph glyph-name="afii10037" unicode="&#x423;" horiz-adv-x="1247" 
d="M37 1460q37 15 113 15q37 0 66 -3.5t40 -7.5l10 -4l330 -698q20 -43 36.5 -86t24.5 -67.5t9 -26.5h6q18 72 61 186l271 692q34 15 102 15q27 0 52.5 -3.5t37.5 -7.5l12 -4l-405 -1065q-38 -101 -84 -174.5t-88.5 -115t-92.5 -66t-90 -32t-88 -7.5q-34 0 -65 4.5t-45 9.5
l-14 4l-2 4q-1 5 -3.5 12.5t-4.5 17t-3.5 23t-1.5 27.5q0 64 10 84q52 -6 95 -6q39 0 68.5 7.5t63.5 29t66 66t62 112.5h-47z" />
    <glyph glyph-name="afii10038" unicode="&#x424;" horiz-adv-x="1648" 
d="M90 770q0 160 46.5 273.5t133.5 178t197 93t252 28.5v144q34 14 102 14q31 0 58 -3.5t38 -7.5l11 -3v-144q113 0 205 -17.5t173 -58.5t135.5 -105.5t86 -164t31.5 -227.5t-31.5 -227.5t-86 -164t-135.5 -105.5t-173 -58.5t-205 -17.5v-183q-39 -14 -105 -14
q-34 0 -60 3.5t-35 6.5l-9 4v183q-142 0 -252 28.5t-197 93t-133.5 178t-46.5 273.5zM301 770q0 -121 31 -205t90 -128t130 -62.5t167 -18.5v828q-75 0 -135 -11t-114.5 -39.5t-90.5 -74.5t-57 -119t-21 -170zM928 356q75 0 134.5 11t114 39.5t90.5 74t57.5 119t21.5 170.5
q0 98 -21.5 171t-57.5 119t-90.5 74t-114 39t-134.5 11v-828z" />
    <glyph glyph-name="afii10039" unicode="&#x425;" horiz-adv-x="1282" 
d="M29 14l477 752l-428 694q41 15 121 15q31 0 60 -3.5t43 -7.5l13 -4l334 -534l340 534q58 15 111 15q59 0 110 -15l-438 -682l475 -760q-43 -18 -121 -18q-33 0 -62 4t-42 8l-12 4l-375 598l-379 -600q-47 -14 -104 -14q-80 0 -123 14z" />
    <glyph glyph-name="afii10040" unicode="&#x426;" horiz-adv-x="1439" 
d="M182 0v1460q31 15 105 15q29 0 55 -3.5t38 -7.5l11 -4v-1280h594v1280q31 15 107 15q30 0 55.5 -3.5t36.5 -7.5l10 -4v-1280h158v-463q-43 -16 -90 -16q-56 0 -97 16v283h-983z" />
    <glyph glyph-name="afii10041" unicode="&#x427;" horiz-adv-x="1310" 
d="M113 1042v418q34 15 104 15q30 0 56.5 -3.5t37.5 -7.5l11 -4v-418q0 -164 69.5 -229t220.5 -65q172 0 308 63v649q36 15 104 15q30 0 56 -3.5t37 -7.5l11 -4v-1446q-34 -14 -102 -14q-34 0 -60.5 3.5t-35.5 6.5l-10 4v617q-49 -23 -137 -43.5t-201 -20.5q-111 0 -194 24
t-146.5 77.5t-96 147t-32.5 226.5z" />
    <glyph glyph-name="afii10042" unicode="&#x428;" horiz-adv-x="1951" 
d="M182 0v1460q31 15 105 15q30 0 56 -3.5t37 -7.5l11 -4v-1280h481v1280q29 15 107 15q31 0 56.5 -3.5t35.5 -7.5l10 -4v-1280h482v1280q28 15 104 15q31 0 56.5 -3.5t35.5 -7.5l10 -4v-1460h-1587z" />
    <glyph glyph-name="afii10043" unicode="&#x429;" horiz-adv-x="2015" 
d="M182 0v1460q31 15 105 15q30 0 56 -3.5t37 -7.5l11 -4v-1280h481v1280q31 15 107 15q30 0 55.5 -3.5t35.5 -7.5l11 -4v-1280h482v1280q30 15 104 15q31 0 56.5 -3.5t35.5 -7.5l10 -4v-1280h158v-463q-36 -16 -92 -16q-53 0 -94 16v283h-1559z" />
    <glyph glyph-name="afii10044" unicode="&#x42a;" horiz-adv-x="1466" 
d="M47 1382q0 24 4 47t8 35l4 11h525v-601h350q202 0 323 -119.5t121 -316.5t-121 -317.5t-323 -120.5h-559v1294h-316q-16 35 -16 88zM588 174h323q122 0 187 69t65 195q0 124 -65 193t-187 69h-323v-526z" />
    <glyph glyph-name="afii10045" unicode="&#x42b;" horiz-adv-x="1789" 
d="M182 0v1460q31 15 107 15q30 0 55.5 -3.5t35.5 -7.5l11 -4v-586h350q202 0 323.5 -119.5t121.5 -316.5t-121.5 -317.5t-323.5 -120.5h-559zM391 174h324q122 0 187 69t65 195q0 124 -65 193t-187 69h-324v-526zM1401 14v1446q32 15 102 15q31 0 57.5 -3.5t37.5 -7.5
l10 -4v-1446q-35 -14 -103 -14q-34 0 -60 3.5t-35 6.5z" />
    <glyph glyph-name="afii10046" unicode="&#x42c;" horiz-adv-x="1269" 
d="M182 0v1460q31 15 107 15q30 0 55.5 -3.5t35.5 -7.5l11 -4v-586h350q202 0 323.5 -119.5t121.5 -316.5t-121.5 -317.5t-323.5 -120.5h-559zM391 174h324q122 0 187 69t65 195q0 124 -65 193t-187 69h-324v-526z" />
    <glyph glyph-name="afii10047" unicode="&#x42d;" horiz-adv-x="1200" 
d="M74 49q0 103 61 158q15 -5 42 -13t107 -21t156 -13q92 0 162.5 23.5t128 79t90.5 156t39 245.5h-528q-17 35 -17 88q0 24 4.5 44.5t8.5 29.5l4 8h528q-9 137 -43.5 233.5t-91.5 150.5t-126.5 77.5t-158.5 23.5q-69 0 -140 -11.5t-108 -23.5l-36 -12q-62 56 -62 153
q15 8 44 19.5t125.5 31t201.5 19.5q302 0 459 -193t157 -565q0 -374 -156.5 -565.5t-459.5 -191.5q-70 0 -136 7t-110 17t-78.5 20.5t-50.5 17.5z" />
    <glyph glyph-name="afii10048" unicode="&#x42e;" horiz-adv-x="1951" 
d="M182 14v1446q35 15 103 15q31 0 57.5 -3.5t37.5 -7.5l11 -4v-637h289q17 341 165 506.5t410 165.5q277 0 427.5 -185.5t150.5 -572.5q0 -386 -150.5 -571.5t-427.5 -185.5q-542 0 -575 671h-289v-637q-38 -14 -104 -14q-33 0 -59 3.5t-36 6.5zM895 737q0 -166 25 -281.5
t73.5 -180.5t112 -93t149.5 -28q68 0 121.5 17t99 58t75.5 107t46.5 166.5t16.5 234.5q0 166 -24.5 281.5t-73.5 181t-112 93.5t-149 28t-149.5 -28t-112 -93.5t-73.5 -181t-25 -281.5z" />
    <glyph glyph-name="afii10049" unicode="&#x42f;" horiz-adv-x="1286" 
d="M82 14l336 598q-137 41 -213 151.5t-76 268.5q0 200 120 321.5t320 121.5h535v-1461q-31 -14 -107 -14q-30 0 -55.5 3.5t-35.5 6.5l-11 4v576h-256l-322 -576q-42 -14 -118 -14q-34 0 -63 3.5t-42 6.5zM346 1032q0 -128 65 -197t185 -69h299v534h-299q-120 0 -185 -70
t-65 -198z" />
    <glyph glyph-name="afii10065" unicode="&#x430;" horiz-adv-x="1054" 
d="M82 322q0 321 393 321q128 0 234 -12v82q0 109 -47.5 161t-163.5 52q-64 0 -132.5 -13t-105.5 -26l-37 -13l-3 2q-2 3 -5.5 5.5t-8.5 8t-9.5 11.5t-10 15.5t-10.5 19.5q-3 8 -5.5 16t-4 15t-2.5 14.5t-1 13v10.5t0.5 8.5t0.5 6.5v2q6 3 17.5 8t49 18.5t77 23.5t98.5 18
t116 8q216 0 303.5 -96t87.5 -302v-686q-22 -14 -79 -14q-23 0 -43.5 3.5t-29.5 6.5l-9 4l-31 131q-80 -165 -322 -165q-148 0 -232.5 87.5t-84.5 254.5zM293 322q0 -185 178 -185q78 0 133 41.5t80 104t25 137.5v72q-141 12 -207 12q-104 0 -156.5 -44t-52.5 -138z" />
    <glyph glyph-name="afii10066" unicode="&#x431;" horiz-adv-x="1165" 
d="M127 719q0 114 8.5 204t30 160.5t46 122t69.5 92t87 66.5t113 48.5t131.5 36.5t157.5 32q59 11 79.5 22t43.5 47q96 -10 135 -75q-21 -82 -69.5 -121t-139.5 -54q-98 -18 -151 -29t-118.5 -29.5t-98.5 -38.5t-70.5 -50.5t-55.5 -71.5t-32.5 -95.5t-20.5 -127.5h9
q41 92 127 143.5t215 51.5q208 0 324 -129t116 -408q0 -280 -118.5 -408t-340.5 -128q-89 0 -157.5 18.5t-130.5 68.5t-102 131.5t-63.5 212.5t-23.5 308zM356 516q0 -111 18 -187.5t52.5 -117t77 -57.5t100.5 -17t100.5 17t77 57.5t52.5 117t18 187.5t-18 187.5t-52.5 117
t-77 57.5t-100.5 17q-59 0 -101 -16t-77 -56.5t-52.5 -117t-17.5 -189.5z" />
    <glyph glyph-name="afii10067" unicode="&#x432;" horiz-adv-x="1056" 
d="M150 0v1077h471q137 0 217 -77t80 -209q0 -166 -121 -236q161 -70 161 -254q0 -140 -86.5 -220.5t-242.5 -80.5h-479zM352 147h228q84 0 127 41.5t43 118.5q0 164 -170 164h-228v-324zM352 616h215q73 0 112.5 43t39.5 115t-39.5 114t-112.5 42h-215v-314z" />
    <glyph glyph-name="afii10068" unicode="&#x433;" horiz-adv-x="831" 
d="M150 14v1063h626q17 -35 17 -86q0 -22 -4.5 -42.5t-8.5 -30.5l-4 -9h-422v-895q-34 -14 -102 -14q-32 0 -57.5 3.5t-34.5 6.5z" />
    <glyph glyph-name="afii10069" unicode="&#x434;" horiz-adv-x="1193" 
d="M51 152h78q48 37 79 138.5t48 299.5l39 487h692v-925h129v-400q-32 -14 -86 -14q-55 0 -102 14v248h-690v-248q-35 -14 -93 -14q-66 0 -94 14v400zM348 152h436v768h-319l-25 -338q-22 -284 -92 -430z" />
    <glyph glyph-name="afii10070" unicode="&#x435;" horiz-adv-x="1052" 
d="M102 545q0 280 121 416.5t334 136.5q192 0 299 -105.5t107 -306.5q0 -57 -5.5 -110t-11.5 -77l-6 -24h-627q12 -176 81.5 -248.5t203.5 -72.5q64 0 125.5 15t90.5 29l30 15q27 -24 43 -63.5t18 -83.5q-5 -3 -14 -9t-41.5 -21t-68.5 -26t-95 -20.5t-121 -9.5
q-463 0 -463 565zM313 621h439q6 48 6 92q0 100 -47 161.5t-154 61.5q-222 0 -244 -315z" />
    <glyph glyph-name="afii10072" unicode="&#x436;" horiz-adv-x="1556" 
d="M33 16l332 562l-285 485q41 14 104 14q29 0 55 -3.5t37 -7.5l11 -3l248 -424h143v424q36 14 102 14q26 0 51.5 -3.5t37.5 -7.5l12 -3v-424h143l250 424q38 14 104 14q26 0 51.5 -3.5t37.5 -7.5l12 -3l-285 -485l332 -564q-35 -14 -113 -14q-31 0 -59.5 3.5t-41.5 6.5
l-12 4l-278 471h-141v-471q-38 -14 -101 -14q-29 0 -54.5 3.5t-36.5 6.5l-11 4v471h-143l-279 -471q-41 -14 -111 -14q-36 0 -64 4t-38 8z" />
    <glyph glyph-name="afii10073" unicode="&#x437;" horiz-adv-x="940" 
d="M66 41q0 87 57 141q11 -4 32 -10.5t89 -17.5t141 -11q125 0 185.5 39.5t60.5 126.5q0 83 -55.5 121.5t-167.5 38.5h-144q-14 33 -14 80q0 19 3.5 37.5t6.5 27.5l4 9h144q97 0 146.5 36.5t49.5 120.5q0 85 -57 122.5t-164 37.5q-62 0 -121.5 -8t-87.5 -16l-29 -9
q-52 46 -55 140q11 6 33.5 14.5t107 22.5t187.5 14q393 0 393 -303q0 -183 -137 -242v-6q166 -61 166 -248q0 -319 -449 -319q-57 0 -112 6.5t-91.5 15t-65.5 17.5t-42 15z" />
    <glyph glyph-name="afii10074" unicode="&#x438;" horiz-adv-x="1177" 
d="M147 14v1049q38 14 99 14q30 0 56.5 -3.5t37.5 -7.5l12 -3v-422q0 -130 -4 -247t-8 -118h6q39 93 94 185l383 602q37 14 103 14q28 0 54 -3.5t38 -7.5l12 -3v-1049q-39 -14 -98 -14q-28 0 -55 3.5t-39 6.5l-13 4v418q0 103 2 191t4.5 132t4.5 46h-7q7 -3 -45 -97.5
l-122 -211.5l-308 -478q-38 -14 -104 -14q-28 0 -54 3.5t-38 6.5z" />
    <glyph glyph-name="afii10075" unicode="&#x439;" horiz-adv-x="1177" 
d="M147 14v1049q38 14 99 14q30 0 56.5 -3.5t37.5 -7.5l12 -3v-422q0 -132 -4 -248.5t-8 -116.5h6q39 93 94 185l383 602q37 14 103 14q28 0 54 -3.5t38 -7.5l12 -3v-1049q-39 -14 -98 -14q-28 0 -55 3.5t-39 6.5l-13 4v418q0 103 2 191t4.5 132t4.5 46h-7q-35 -89 -96 -189
l-379 -598q-38 -14 -104 -14q-28 0 -54 3.5t-38 6.5zM283 1380q9 33 33.5 60t54.5 37q9 -7 26.5 -18t74.5 -29.5t118 -18.5t115.5 16.5t78.5 32.5l25 17q31 -9 55 -36t33 -61q-4 -5 -12 -14t-37 -31t-61.5 -39t-86 -31t-110.5 -14t-110 13.5t-87 32.5t-60.5 37.5t-38.5 31.5
z" />
    <glyph glyph-name="afii10076" unicode="&#x43a;" horiz-adv-x="1026" 
d="M147 14v1049q37 14 105 14q25 0 50 -3.5t38 -7.5l12 -3v-424h117l276 424q44 14 105 14q26 0 51.5 -3t38.5 -6l12 -3l-315 -490l360 -561q-38 -14 -118 -14q-31 0 -58 3.5t-38 6.5l-11 4l-307 471h-113v-471q-41 -14 -100 -14q-29 0 -55.5 3.5t-38.5 6.5z" />
    <glyph glyph-name="afii10077" unicode="&#x43b;" horiz-adv-x="1136" 
d="M37 72q0 17 3.5 35t7.5 27l3 9q33 -6 70 0q120 18 155 459l37 475h674v-1063q-43 -14 -98 -14q-29 0 -55.5 3.5t-37.5 6.5l-12 4v906h-295l-26 -326q-13 -153 -35.5 -263.5t-51 -176t-68 -103.5t-78 -50.5t-89.5 -12.5q-22 0 -44.5 3.5t-34.5 6.5l-11 4q-14 27 -14 70z
" />
    <glyph glyph-name="afii10078" unicode="&#x43c;" horiz-adv-x="1363" 
d="M147 14v1049q52 14 115 14q31 0 58.5 -3.5t39.5 -7.5l11 -3l243 -449q27 -51 64 -141h6q32 86 61 141l246 449q47 14 115 14q27 0 55 -3.5t42 -7.5l14 -3v-1049q-31 -14 -97 -14q-28 0 -53 3.5t-36 6.5l-11 4v488q0 85 4 160.5t7 107.5t5 39h-8q-1 -2 -4.5 -10.5l-9 -23
t-14 -33.5t-22 -46.5l-28.5 -56.5l-225 -408q-18 -10 -49 -10q-14 0 -26 2.5t-18 4.5l-5 3l-217 396q-48 92 -84 182h-7q15 -75 15 -309v-486q-39 -14 -94 -14q-24 0 -47 3.5t-35 6.5z" />
    <glyph glyph-name="afii10079" unicode="&#x43d;" horiz-adv-x="1142" 
d="M147 14v1049q33 14 103 14q28 0 53.5 -3.5t36.5 -7.5l12 -3v-426h439v426q41 14 102 14q29 0 54.5 -3.5t36.5 -7.5l11 -3v-1049q-34 -14 -104 -14q-27 0 -52 3.5t-37 6.5l-11 4v457h-439v-457q-36 -14 -104 -14q-29 0 -54.5 3.5t-35.5 6.5z" />
    <glyph glyph-name="afii10080" unicode="&#x43e;" horiz-adv-x="1114" 
d="M102 539q0 294 117.5 426.5t337.5 132.5q222 0 338.5 -132.5t116.5 -426.5t-117.5 -426.5t-337.5 -132.5t-337.5 132.5t-117.5 426.5zM311 539q0 -116 17 -195.5t50.5 -124t76.5 -63.5t102 -19t102 19t76 63.5t49.5 124t16.5 195.5t-16.5 195.5t-49.5 123.5t-76 63
t-102 19q-47 0 -83.5 -11.5t-67.5 -39t-51.5 -73t-32 -115t-11.5 -162.5z" />
    <glyph glyph-name="afii10081" unicode="&#x43f;" horiz-adv-x="1126" 
d="M150 14v1063h827v-1063q-39 -14 -105 -14q-25 0 -50 3.5t-38 6.5l-12 4v893h-418v-893q-41 -14 -104 -14q-28 0 -53 3.5t-36 6.5z" />
    <glyph glyph-name="afii10082" unicode="&#x440;" 
d="M150 -461v1524q32 14 100 14q31 0 57 -3.5t37 -7.5l10 -3v-98q90 133 295 133q90 0 158.5 -29t120.5 -93t79 -174t27 -263t-27 -263t-79 -174t-120.5 -93t-158.5 -29q-205 0 -295 133v-574q-34 -12 -104 -12q-30 0 -55 3t-35 6zM354 410q0 -111 60.5 -187t163.5 -76
q86 0 137.5 34t79.5 121t28 237q0 221 -58 306t-187 85q-103 0 -163.5 -74.5t-60.5 -183.5v-262z" />
    <glyph glyph-name="afii10083" unicode="&#x441;" horiz-adv-x="915" 
d="M102 539q0 275 114 417t337 142q88 0 156.5 -13t92.5 -25l25 -13q0 -92 -59 -148q-71 31 -180 31q-146 0 -210.5 -94.5t-64.5 -296.5q0 -201 67.5 -293t215.5 -92q50 0 98 8.5t71 17.5l23 8q26 -23 42 -63.5t18 -83.5q-10 -7 -30.5 -17t-97 -27t-167.5 -17
q-223 0 -337 142t-114 417z" />
    <glyph glyph-name="afii10084" unicode="&#x442;" horiz-adv-x="931" 
d="M41 991q0 24 4.5 45.5t8.5 31.5l5 9h815q17 -33 17 -86q0 -24 -4.5 -45.5t-8.5 -31.5l-4 -9h-305v-891q-34 -14 -102 -14q-32 0 -57.5 3.5t-35.5 6.5l-9 4v891h-306q-18 33 -18 86z" />
    <glyph glyph-name="afii10085" unicode="&#x443;" horiz-adv-x="1077" 
d="M41 1063q38 14 106 14q31 0 58 -3.5t38 -7.5l11 -3l233 -623q23 -63 41 -122.5t24 -87.5l7 -29h8q21 96 66 237l203 625q32 14 100 14q26 0 50 -3.5t35 -7.5l11 -3l-395 -1221q-24 -74 -45.5 -124t-52 -97t-66.5 -74t-87 -43t-116 -16q-30 0 -58 5t-41 10l-13 5l-2 4
q-1 5 -3.5 12t-4.5 16t-3.5 21t-1.5 23q0 20 4 40t7.5 30t5.5 12q45 -8 92 -8q38 0 62.5 7t49.5 29t45.5 65.5t43.5 115.5l43 125q-44 4 -66 14z" />
    <glyph glyph-name="afii10086" unicode="&#x444;" horiz-adv-x="1593" 
d="M104 539q0 279 93 419t295 140q54 0 104.5 -10t73.5 -20l24 -9v463q31 14 103 14q30 0 55.5 -3.5t35.5 -6.5l11 -4v-463q80 39 203 39q202 -1 294.5 -140.5t92.5 -418.5q0 -280 -92.5 -419.5t-294.5 -139.5q-55 0 -105.5 11t-74.5 23l-23 11v-523q-34 -14 -102 -14
q-32 0 -57.5 3.5t-35.5 6.5l-10 4v523q-9 -5 -25.5 -12.5t-69 -20t-107.5 -12.5q-202 0 -295 140t-93 419zM307 539q0 -214 51 -307t166 -93q47 0 91.5 12.5t65.5 24.5l21 12v711l-8 3q-7 4 -22 10.5t-35 12.5t-50 10.5t-63 4.5q-115 0 -166 -93.5t-51 -307.5zM889 188
q8 -5 23 -13.5t61.5 -22t93.5 -13.5q116 0 166.5 92.5t50.5 307.5t-50.5 308t-166.5 93q-33 0 -63 -4.5t-50 -10.5t-35 -12.5t-23 -10.5l-7 -3v-711z" />
    <glyph glyph-name="afii10087" unicode="&#x445;" horiz-adv-x="1030" 
d="M35 14l362 537l-340 512q41 14 113 14q33 0 61 -3.5t40 -7.5l12 -3l241 -363l244 363q35 14 98 14q31 0 58 -3.5t38 -7.5l11 -3l-340 -504l364 -545q-40 -14 -112 -14q-33 0 -61 3.5t-40 6.5l-12 4l-264 396l-266 -396q-38 -14 -101 -14q-30 0 -56.5 3.5t-38.5 6.5z" />
    <glyph glyph-name="afii10088" unicode="&#x446;" horiz-adv-x="1185" 
d="M150 0v1063q34 14 100 14q32 0 57.5 -3.5t34.5 -7.5l10 -3v-893h422v893q37 14 100 14q28 0 53.5 -3.5t37.5 -7.5l12 -3v-893h129v-418q-35 -14 -88 -14q-70 0 -98 14v248h-770z" />
    <glyph glyph-name="afii10089" unicode="&#x447;" horiz-adv-x="1071" 
d="M94 733v330q40 14 103 14q28 0 53.5 -3.5t37.5 -7.5l11 -3v-332q0 -94 50 -137t157 -43q57 0 107 9.5t73 19t33 16.5v467q34 14 100 14q32 0 58 -3.5t37 -7.5l10 -3v-1049q-33 -14 -105 -14q-29 0 -54 3.5t-35 6.5l-11 4v416q-12 -7 -34.5 -15t-78.5 -17t-121 -9
q-391 0 -391 344z" />
    <glyph glyph-name="afii10090" unicode="&#x448;" horiz-adv-x="1554" 
d="M150 0v1063q28 14 100 14q31 0 57 -3.5t37 -7.5l10 -3v-893h320v893q30 14 100 14q31 0 57.5 -3.5t36.5 -7.5l11 -3v-893h321v893q28 14 100 14q31 0 57.5 -3.5t36.5 -7.5l11 -3v-1063h-1255z" />
    <glyph glyph-name="afii10091" unicode="&#x449;" horiz-adv-x="1611" 
d="M150 0v1063q28 14 100 14q31 0 57 -3.5t37 -7.5l10 -3v-893h320v893q30 14 100 14q31 0 57.5 -3.5t36.5 -7.5l11 -3v-893h321v893q28 14 100 14q31 0 57.5 -3.5t36.5 -7.5l11 -3v-893h129v-418q-35 -14 -94 -14q-62 0 -94 14v248h-1196z" />
    <glyph glyph-name="afii10092" unicode="&#x44a;" horiz-adv-x="1183" 
d="M43 993q0 51 20 84h443v-430h268q154 0 245 -88.5t91 -234.5q0 -147 -91 -235.5t-245 -88.5h-473v905h-238q-20 42 -20 88zM506 147h231q79 0 121.5 46t42.5 129t-42.5 129.5t-121.5 46.5h-231v-351z" />
    <glyph glyph-name="afii10093" unicode="&#x44b;" horiz-adv-x="1482" 
d="M150 0v1063q38 14 100 14q66 0 104 -14v-416h269q154 0 244.5 -88.5t90.5 -234.5q0 -147 -90.5 -235.5t-244.5 -88.5h-473zM354 147h232q79 0 121.5 46t42.5 129t-42.5 129.5t-121.5 46.5h-232v-351zM1130 14v1049q38 14 103 14q64 0 102 -14v-1049q-38 -14 -104 -14
q-63 0 -101 14z" />
    <glyph glyph-name="afii10094" unicode="&#x44c;" horiz-adv-x="1032" 
d="M150 0v1063q38 14 100 14q66 0 104 -14v-416h269q154 0 244.5 -88.5t90.5 -234.5q0 -147 -90.5 -235.5t-244.5 -88.5h-473zM354 147h232q79 0 121.5 46t42.5 129t-42.5 129.5t-121.5 46.5h-232v-351z" />
    <glyph glyph-name="afii10095" unicode="&#x44d;" horiz-adv-x="937" 
d="M68 41q3 94 57 139q92 -35 211 -35q267 0 291 322h-389q-2 2 -5 10t-6.5 26.5t-3.5 39.5q0 48 15 78h387q-24 319 -281 319q-52 0 -102.5 -8t-74.5 -16l-24 -7q-52 49 -55 138q11 6 32.5 14.5t97 22.5t163.5 14q225 0 340 -142t115 -417q0 -274 -116.5 -416.5
t-340.5 -142.5q-57 0 -110 6.5t-88 15t-61.5 17.5t-39.5 15z" />
    <glyph glyph-name="afii10096" unicode="&#x44e;" horiz-adv-x="1593" 
d="M147 14v1049q38 14 103 14q64 0 102 -14v-447h228q17 251 132.5 366.5t321.5 115.5q222 0 339.5 -132.5t117.5 -426.5t-117.5 -426.5t-339.5 -132.5q-203 0 -318.5 110t-135.5 354h-228v-430q-38 -14 -104 -14q-63 0 -101 14zM784 539q0 -115 17 -195t51.5 -124.5
t78 -63.5t103.5 -19q59 0 102 19t76.5 63.5t50.5 124t17 195.5q0 93 -11.5 162.5t-32 115t-51.5 73t-67.5 39t-83.5 11.5q-60 0 -103.5 -19t-78 -63t-51.5 -124t-17 -195z" />
    <glyph glyph-name="afii10097" unicode="&#x44f;" horiz-adv-x="1073" 
d="M72 14l245 428q-93 35 -143.5 114.5t-50.5 188.5q0 150 93.5 241t254.5 91h453v-1063q-38 -14 -101 -14q-66 0 -104 14v400h-199l-221 -400q-47 -14 -119 -14q-61 0 -108 14zM332 745q0 -84 45 -133t131 -49h211v367h-211q-86 0 -131 -49t-45 -136z" />
    <glyph glyph-name="afii10071" unicode="&#x451;" horiz-adv-x="1052" 
d="M102 545q0 280 121 416.5t334 136.5q192 0 299 -105.5t107 -306.5q0 -57 -5.5 -110t-11.5 -77l-6 -24h-627q12 -177 82.5 -253.5t202.5 -76.5q64 0 125.5 14.5t90.5 28.5l30 15q54 -45 61 -137q-5 -3 -13.5 -9t-40 -21t-68 -26t-95.5 -20.5t-123 -9.5q-463 0 -463 565z
M283 1274v166q31 12 94 12q26 0 49 -3t33 -6l10 -3v-166q-33 -12 -92 -12q-28 0 -51.5 3t-33.5 6zM313 621h439q6 48 6 92q0 100 -47 161.5t-154 61.5q-222 0 -244 -315zM631 1274v166q29 12 92 12q27 0 50.5 -3t33.5 -6l10 -3v-166q-33 -12 -94 -12q-28 0 -51 3t-32 6z" />
    <glyph glyph-name="uni2000" unicode="&#x2000;" horiz-adv-x="966" 
 />
    <glyph glyph-name="uni2001" unicode="&#x2001;" horiz-adv-x="1933" 
 />
    <glyph glyph-name="uni2002" unicode="&#x2002;" horiz-adv-x="966" 
 />
    <glyph glyph-name="uni2003" unicode="&#x2003;" horiz-adv-x="1933" 
 />
    <glyph glyph-name="uni2004" unicode="&#x2004;" horiz-adv-x="644" 
 />
    <glyph glyph-name="uni2005" unicode="&#x2005;" horiz-adv-x="483" 
 />
    <glyph glyph-name="uni2006" unicode="&#x2006;" horiz-adv-x="322" 
 />
    <glyph glyph-name="uni2007" unicode="&#x2007;" horiz-adv-x="322" 
 />
    <glyph glyph-name="uni2008" unicode="&#x2008;" horiz-adv-x="241" 
 />
    <glyph glyph-name="uni2009" unicode="&#x2009;" horiz-adv-x="386" 
 />
    <glyph glyph-name="uni200A" unicode="&#x200a;" horiz-adv-x="107" 
 />
    <glyph glyph-name="uni2010" unicode="&#x2010;" horiz-adv-x="733" 
d="M141 594q0 21 3.5 40t6.5 28l3 8h426q12 -29 12 -76q0 -21 -3 -40t-6 -28l-3 -8h-426q-13 29 -13 76z" />
    <glyph glyph-name="uni2011" unicode="&#x2011;" horiz-adv-x="733" 
d="M141 594q0 21 3.5 40t6.5 28l3 8h426q12 -29 12 -76q0 -21 -3 -40t-6 -28l-3 -8h-426q-13 29 -13 76z" />
    <glyph glyph-name="figuredash" unicode="&#x2012;" horiz-adv-x="733" 
d="M141 594q0 21 3.5 40t6.5 28l3 8h426q12 -29 12 -76q0 -21 -3 -40t-6 -28l-3 -8h-426q-13 29 -13 76z" />
    <glyph glyph-name="endash" unicode="&#x2013;" horiz-adv-x="1142" 
d="M141 594q0 21 3.5 40t6.5 28l3 8h835q12 -29 12 -76q0 -21 -3 -40t-6 -28l-3 -8h-835q-13 29 -13 76z" />
    <glyph glyph-name="emdash" unicode="&#x2014;" horiz-adv-x="1654" 
d="M141 594q0 21 3.5 40t6.5 28l3 8h1347q12 -29 12 -76q0 -21 -3 -40t-6 -28l-3 -8h-1347q-13 29 -13 76z" />
    <glyph glyph-name="quoteleft" unicode="&#x2018;" horiz-adv-x="466" 
d="M123 1012v129q0 62 15 119t36 94.5t42.5 66t36.5 41.5l15 13l74 -52q-7 -8 -18.5 -23.5t-32.5 -69t-25 -113.5q21 -1 38.5 -3.5t24.5 -5.5l7 -2v-194q-33 -13 -107 -13q-31 0 -57.5 3.5t-37.5 6.5z" />
    <glyph glyph-name="quoteright" unicode="&#x2019;" horiz-adv-x="450" 
d="M123 1051q3 3 7.5 8.5t16.5 24.5t22 40.5t19 56.5t11 72q-21 2 -38 5.5t-23 6.5l-7 3v192q33 15 107 15q31 0 57.5 -3.5t37.5 -7.5l11 -4v-127q0 -62 -15 -119t-37 -94.5t-43.5 -66t-36.5 -41.5l-15 -13z" />
    <glyph glyph-name="quotesinglbase" unicode="&#x201a;" horiz-adv-x="481" 
d="M125 -205q7 8 18.5 23.5t32.5 69t25 112.5q-21 1 -38 4.5t-23 6.5l-7 3v193q31 14 107 14q31 0 57.5 -3.5t37.5 -7.5l11 -3v-129q0 -62 -15 -119t-37 -94.5t-43.5 -66t-36.5 -41.5l-15 -13z" />
    <glyph glyph-name="quotedblleft" unicode="&#x201c;" horiz-adv-x="718" 
d="M115 1014v127q0 62 15 119t37 94.5t43.5 66t36.5 41.5l15 13l74 -52q-7 -8 -18.5 -23t-32.5 -67.5t-25 -111.5q21 -2 38 -5.5t24 -6.5l6 -3v-192q-31 -15 -107 -15q-31 0 -57.5 3.5t-37.5 7.5zM408 1014v127q0 62 15 119t37 94.5t43.5 66t36.5 41.5l15 13l74 -52
q-7 -8 -18.5 -23t-32.5 -67.5t-25 -111.5q21 -2 38 -5.5t23 -6.5l7 -3v-192q-31 -15 -107 -15q-30 0 -56.5 3.5t-37.5 7.5z" />
    <glyph glyph-name="quotedblright" unicode="&#x201d;" horiz-adv-x="741" 
d="M123 1051q7 8 18.5 23t32.5 67.5t25 111.5q-21 2 -38 5.5t-23 6.5l-7 3v192q31 15 107 15q30 0 56.5 -3.5t37.5 -7.5l12 -4v-127q0 -62 -15 -119t-37 -94.5t-43.5 -66t-36.5 -41.5l-15 -13zM416 1051q7 8 18.5 23t32.5 67.5t25 111.5q-21 2 -38 5.5t-24 6.5l-6 3v192
q30 15 106 15q31 0 58 -3.5t38 -7.5l11 -4v-127q0 -62 -15 -119t-37 -94.5t-44 -66t-37 -41.5l-15 -13z" />
    <glyph glyph-name="quotedblbase" unicode="&#x201e;" horiz-adv-x="774" 
d="M125 -205q7 8 18.5 23.5t32.5 69t25 112.5q-21 1 -38 4.5t-23 6.5l-7 3v193q33 14 107 14q31 0 57.5 -3.5t37.5 -7.5l11 -3v-129q0 -62 -15 -119t-37 -94.5t-43.5 -66t-36.5 -41.5l-15 -13zM420 -205q7 8 18.5 23.5t32.5 69t25 112.5q-21 1 -38 4.5t-24 6.5l-6 3v193
q31 14 107 14q30 0 56.5 -3.5t38.5 -7.5l11 -3v-129q0 -62 -15 -119t-36.5 -94.5t-43.5 -66t-37 -41.5l-15 -13z" />
    <glyph glyph-name="dagger" unicode="&#x2020;" horiz-adv-x="1150" 
d="M55 928q0 23 3 42.5t6 27.5l2 8l450 -15l-14 436q37 9 84 9q21 0 41.5 -2t30.5 -4l10 -3l-15 -436l434 15q11 -33 11 -78q0 -21 -3 -41t-5 -29l-3 -10l-434 14l15 -1075l-80 -47l-86 47l14 1075l-450 -14q-11 35 -11 80z" />
    <glyph glyph-name="daggerdbl" unicode="&#x2021;" horiz-adv-x="1308" 
d="M127 258q0 22 2.5 42t4.5 29l3 9l449 -14l-15 268l15 270l-451 -14q-8 33 -8 80q0 24 2 43.5t4 26.5l2 8l451 -15l-15 436q35 9 84 9q22 0 42.5 -2t30.5 -4l9 -3l-14 -436l448 15q11 -31 11 -78q0 -22 -3 -42t-5 -29l-3 -9l-448 14l14 -270l-14 -268l451 14q8 -33 8 -80
q0 -24 -2 -43.5t-4 -26.5l-2 -8l-451 15l14 -437q-35 -8 -84 -8q-22 0 -42.5 2t-30.5 4l-9 2l15 437l-449 -15q-10 31 -10 78z" />
    <glyph glyph-name="bullet" unicode="&#x2022;" horiz-adv-x="696" 
d="M176 578q0 77 49.5 123.5t124.5 46.5q73 0 121.5 -46.5t48.5 -123.5q0 -75 -48.5 -121.5t-121.5 -46.5q-75 0 -124.5 46.5t-49.5 121.5z" />
    <glyph glyph-name="ellipsis" unicode="&#x2026;" horiz-adv-x="1314" 
d="M133 14v193q33 14 107 14q31 0 57.5 -3.5t37.5 -7.5l11 -3v-193q-36 -14 -106 -14q-33 0 -59.5 3.5t-36.5 6.5zM553 14v193q32 14 106 14q31 0 58 -3.5t38 -7.5l11 -3v-193q-37 -14 -107 -14q-33 0 -59.5 3.5t-36.5 6.5zM969 14v193q32 14 106 14q31 0 58 -3.5t38 -7.5
l11 -3v-193q-37 -14 -107 -14q-33 0 -59.5 3.5t-36.5 6.5z" />
    <glyph glyph-name="uni202F" unicode="&#x202f;" horiz-adv-x="386" 
 />
    <glyph glyph-name="perthousand" unicode="&#x2030;" horiz-adv-x="2228" 
d="M86 1061q0 184 71.5 269t209.5 85q136 0 208 -84.5t72 -269.5t-72 -269.5t-208 -84.5q-138 0 -209.5 84t-71.5 270zM238 1061q0 -137 31 -185.5t98 -48.5q42 0 68 17.5t42.5 70.5t16.5 146q0 133 -32 184t-95 51q-66 0 -97.5 -50.5t-31.5 -184.5zM311 -8l793 1433
q25 13 80 13q24 0 44 -3t28 -7l8 -3l-791 -1433q-27 -12 -82 -12q-23 0 -43 3t-28 6zM920 334q0 184 71 269t207 85q281 0 281 -354t-281 -354q-137 0 -207.5 84t-70.5 270zM1069 334q0 -136 31.5 -185t97.5 -49q43 0 69 17.5t42 70t16 146.5q0 134 -31.5 184.5t-95.5 50.5
q-65 0 -97 -51t-32 -184zM1589 334q0 354 279 354q282 0 282 -354t-282 -354q-137 0 -208 84t-71 270zM1741 334q0 -94 16 -146.5t42 -70t69 -17.5t69 17.5t42 70t16 146.5q0 134 -31.5 184.5t-95.5 50.5q-65 0 -96 -50.5t-31 -184.5z" />
    <glyph glyph-name="guilsinglleft" unicode="&#x2039;" horiz-adv-x="696" 
d="M94 545q0 25 4 48t8 33l3 11l415 405q54 -42 68 -120l-320 -371l320 -369q-14 -79 -68 -121l-415 402q-15 31 -15 82z" />
    <glyph glyph-name="guilsinglright" unicode="&#x203a;" horiz-adv-x="696" 
d="M104 182l320 369l-320 371q14 78 68 120l416 -405q14 -35 14 -92q0 -23 -3.5 -43.5t-6.5 -29.5l-4 -9l-416 -402q-54 42 -68 121z" />
    <glyph glyph-name="fraction" unicode="&#x2044;" horiz-adv-x="278" 
d="M-338 -8l791 1433q24 13 79 13q24 0 43.5 -3t26.5 -7l8 -3l-792 -1433q-31 -12 -80 -12q-20 0 -39 3t-28 6z" />
    <glyph glyph-name="uni205F" unicode="&#x205f;" horiz-adv-x="483" 
 />
    <glyph glyph-name="Euro" unicode="&#x20ac;" horiz-adv-x="1212" 
d="M98 459q-6 30 1 67.5t24 63.5h135q-4 58 -4 96q0 65 4 100h-160q-6 30 1 66.5t24 62.5h149q40 236 170 357t349 121q90 0 167 -16.5t108 -32.5l32 -17q-3 -92 -60 -141q-100 41 -227 41q-132 0 -216 -71.5t-116 -240.5h500q7 -29 0.5 -66t-23.5 -63h-495q-2 -33 -2 -102
q0 -67 2 -94h434q7 -31 0.5 -68t-23.5 -63h-395q16 -89 46.5 -150.5t75 -96.5t96 -50t116.5 -15q64 0 126 10.5t92 21.5l30 11q57 -44 57 -145q-13 -7 -37.5 -18t-108.5 -29t-179 -18q-442 0 -519 479h-174z" />
    <glyph glyph-name="trademark" unicode="&#x2122;" horiz-adv-x="1271" 
d="M76 1438q0 25 6 37h416q8 -13 8 -35q0 -13 -8 -37h-162v-510q-16 -8 -45 -8q-14 0 -24.5 2t-14.5 4l-4 2v510h-166q-6 18 -6 35zM590 893v573q20 9 53 9q17 0 51 -9l88 -174q50 -98 70 -157q15 39 70 147l88 184q30 9 55 9q16 0 29.5 -2.5t19.5 -4.5l6 -2v-573
q-14 -8 -41 -8q-13 0 -23.5 2t-15.5 4l-4 2v240q0 194 2 227l-59 -129l-92 -182q-12 -7 -37 -7q-11 0 -20.5 2t-13.5 4l-3 1l-88 180q-38 75 -59 131q4 -94 4 -227v-240q-14 -8 -41 -8q-10 0 -20 2t-15 4z" />
    <glyph glyph-name="partialdiff" unicode="&#x2202;" horiz-adv-x="1140" 
d="M102 516q0 537 437 537q137 0 235 -74q-45 160 -164 254t-334 127q-26 107 25 176q195 -19 332.5 -82t223 -174.5t124.5 -266t39 -364.5q0 -152 -21 -267t-59 -191t-96 -123.5t-127 -67.5t-158 -20q-221 0 -339 127t-118 409zM313 516q0 -110 17 -185.5t51 -117t77.5 -59
t102.5 -17.5q128 0 188 89.5t60 289.5q0 193 -8 279q-35 47 -100.5 73.5t-145.5 26.5q-46 0 -81.5 -10t-67 -35.5t-51 -68t-31 -109t-11.5 -156.5z" />
    <glyph glyph-name="uni2206" unicode="&#x2206;" horiz-adv-x="1312" 
d="M47 102l508 1358q54 15 104 15q55 0 109 -15l496 -1356q-19 -68 -64 -104h-1087q-53 39 -66 102zM276 170h746l-295 801q-50 132 -72 233h-6q-32 -121 -74 -235z" />
    <glyph glyph-name="product" unicode="&#x220f;" horiz-adv-x="1460" 
d="M195 -408v1827h1071v-1827q-34 -16 -95 -16q-26 0 -49 4t-33 8l-10 4v1651h-698v-1651q-31 -16 -94 -16q-26 0 -49 4t-33 8z" />
    <glyph glyph-name="summation" unicode="&#x2211;" horiz-adv-x="1218" 
d="M68 -322l464 857l-430 794v92h1010q14 -33 14 -86q0 -22 -3.5 -43t-6.5 -31l-4 -10h-758l389 -719l-419 -782h800q15 -33 15 -88q0 -23 -3.5 -44.5t-7.5 -31.5l-4 -10h-1056v102z" />
    <glyph glyph-name="radical" unicode="&#x221a;" horiz-adv-x="1318" 
d="M51 750l359 157l295 -698l436 1286q39 6 77 -3t64 -32l-502 -1491h-145l-320 740l-209 -91q-29 19 -45 56t-10 76z" />
    <glyph glyph-name="infinity" unicode="&#x221e;" horiz-adv-x="1658" 
d="M111 666q0 90 39 167.5t123.5 129t201.5 51.5q66 0 127 -23.5t100.5 -57t69.5 -67t44 -56.5l13 -24q5 9 15 24.5t44 55t72 69.5t99 54.5t125 24.5q117 0 201.5 -51.5t123.5 -129t39 -167.5q0 -67 -23 -128.5t-67 -111t-115 -79.5t-159 -30q-66 0 -127 23.5t-100.5 56.5
t-70 66t-44.5 57l-13 23q-5 -9 -14.5 -24.5t-42.5 -54.5t-70.5 -68.5t-99 -54t-127.5 -24.5q-88 0 -159 30t-115 79.5t-67 111t-23 128.5zM270 666q0 -35 11.5 -68t35 -62t64 -46t92.5 -17q48 0 91.5 20t72 48.5t50 56.5t31.5 48l9 20q-3 8 -10 21t-30.5 46t-50.5 58t-71 46
t-92 21q-101 0 -152 -57.5t-51 -134.5zM932 666q3 -8 10 -21t30.5 -46t50.5 -58.5t71 -46.5t92 -21q52 0 92.5 17t64 46t35 62t11.5 68q0 77 -51 134.5t-152 57.5q-48 0 -91.5 -20t-72 -48t-50 -56t-30.5 -48z" />
    <glyph glyph-name="integral" unicode="&#x222b;" horiz-adv-x="1019" 
d="M25 -307q13 83 69 123q103 -73 191 -62q133 14 133 215v1145q0 171 82.5 266t242.5 95q26 0 52.5 -4t50.5 -11t44.5 -14.5t39.5 -17.5l30.5 -16t23.5 -13.5t13 -7.5q-12 -80 -69 -125q-102 71 -203 59q-67 -6 -106 -57t-39 -152v-1147q0 -178 -79.5 -270t-236.5 -92
q-34 0 -68.5 7.5t-62.5 19.5t-48 23t-38.5 23t-21.5 13z" />
    <glyph glyph-name="approxequal" unicode="&#x2248;" horiz-adv-x="1091" 
d="M145 406l8.5 14t26.5 31.5t46.5 40t68.5 31.5t92 14q45 0 89 -16.5t74 -36t73 -36t86 -16.5q44 0 80 19t51 38l14 19q79 -25 92 -100l-8.5 -14t-27 -32t-47 -40t-69 -31.5t-92.5 -14.5q-45 0 -89 16.5t-74 36t-72.5 36t-85.5 16.5q-27 0 -52 -8t-41 -19t-28 -22t-17 -19
l-5 -8q-38 12 -62.5 39.5t-30.5 61.5zM145 762l8.5 14t26.5 31.5t46.5 40t68.5 31.5t92 14q45 0 89 -16.5t74 -36t73 -36t86 -16.5q44 0 80 19t51 38l14 19q79 -25 92 -100l-8.5 -14t-27 -31.5t-47 -40t-69 -31.5t-92.5 -14q-45 0 -89 16.5t-74 35.5t-72.5 35.5t-85.5 16.5
q-27 0 -52 -7.5t-41 -18.5t-28 -22.5t-17 -18.5l-5 -8q-38 12 -62.5 39t-30.5 61z" />
    <glyph glyph-name="notequal" unicode="&#x2260;" horiz-adv-x="1007" 
d="M123 408q0 47 12 77h227l119 215h-346q-12 38 -12 82q0 36 12 72h432l90 164q40 12 72 12q34 0 70 -12l-92 -164h161q13 -29 13 -72q0 -45 -13 -82h-245l-119 -215h364q13 -33 13 -73q0 -43 -13 -80h-450l-101 -180q-29 -13 -73 -13q-27 0 -66 13l101 180h-144
q-12 46 -12 76z" />
    <glyph glyph-name="lessequal" unicode="&#x2264;" horiz-adv-x="950" 
d="M141 270q0 21 3.5 40t6.5 28l3 8h634q13 -29 13 -76q0 -21 -3.5 -39.5t-6.5 -26.5l-3 -9h-634q-13 28 -13 75zM141 760q0 21 3.5 40.5t6.5 28.5l3 9l634 233q13 -25 13 -76q0 -23 -3.5 -43t-6.5 -28l-3 -9l-446 -161l446 -156q13 -25 13 -78q0 -22 -3.5 -41.5t-6.5 -28.5
l-3 -8l-634 234q-13 35 -13 84z" />
    <glyph glyph-name="greaterequal" unicode="&#x2265;" horiz-adv-x="950" 
d="M150 270q0 21 3 40t6 28l3 8h635q12 -29 12 -76q0 -21 -3 -39.5t-6 -26.5l-3 -9h-635q-12 28 -12 75zM150 520q0 24 3 43.5t6 26.5l3 8l446 156l-446 161q-12 29 -12 80q0 23 3 42t6 27l3 7l635 -233q12 -31 12 -78q0 -22 -3 -43t-6 -31l-3 -10l-635 -234q-12 29 -12 78z
" />
    <glyph glyph-name="lozenge" unicode="&#x25ca;" horiz-adv-x="1124" 
d="M78 721l438 704h88l445 -704l-445 -707h-88zM272 719l291 -486l295 486l-295 485z" />
    <glyph glyph-name="uni25FC" unicode="&#x25fc;" horiz-adv-x="1075" 
d="M0 0v1075h1075v-1075h-1075z" />
    </font>
</defs>
</svg>
